<?xml version="1.0" standalone="no"?>
<!DOCTYPE svg PUBLIC "-//W3C//DTD SVG 1.1//EN" "http://www.w3.org/Graphics/SVG/1.1/DTD/svg11.dtd" >
<!--
2013-9-30: Created.
-->
<svg>
<metadata>
Created by iconfont
</metadata>
<defs>

<font id="iconfont" horiz-adv-x="1024" >
  <font-face
    font-family="iconfont"
    font-weight="500"
    font-stretch="normal"
    units-per-em="1024"
    ascent="896"
    descent="-128"
  />
    <missing-glyph />
    
    <glyph glyph-name="ditu" unicode="&#58941;" d="M1069.18023548 829.90205127c-5.75082422 4.12503926-13.13551055 5.21658808-19.80365098 2.9065667L734.02625687 725.2472036199999 418.67823635 832.80861797c-0.52154385 0.19269404-1.07770254 0.21346348-1.61193867 0.34269521-0.98539365 0.25384834-1.94655674 0.51115869-2.95156669 0.6380833-0.78231533 0.08538574-1.55770752 0.06576943-2.35040714 0.06576944-0.90923906 0-1.80809385 0.045-2.71502578-0.08538574-0.93000849-0.10615518-1.81847901-0.33923408-2.72425693-0.57692901-0.58962129-0.15115518-1.18731885-0.19269404-1.77809414-0.38423408L82.14424398 722.83102617C73.27685159 719.81830518 67.33333333 711.48284092 67.33333333 702.1215972699999l0-746.23407012c0-7.05237539 3.39695596-13.69974638 9.13854903-17.80401709 3.76157461-2.69425635 8.22930996-4.08350039 12.74896845-4.08350039 2.37463769 0 4.75619942 0.38423408 7.05468252 1.17808858l315.34686651 107.55795321 315.35032763-107.55795321c0.05192315-0.02423057 0.11769346 0 0.18230977-0.02423057 2.22348252-0.74769961 4.54388994-1.15270312 6.87006562-1.15270313 2.34002197 0 4.65927539 0.40500352 6.88391191 1.15270313 0.06576943 0.02423057 0.13038574 0 0.18115577 0.02423057l322.4130873 109.97412977c8.87431553 3.01272099 14.81437266 11.35164727 14.81437266 20.71289093L1078.3176305 812.09572705C1078.3187845 819.15041045 1074.91721341 825.79778144 1069.18023548 829.90205127zM111.10721429 686.4522167l278.62882207 95.05706397-1e-8-699.97708828L111.10721429-13.523718460000055 111.10721429 686.4522167zM433.51337845 781.5092806600001l278.62536093-95.05706396 1e-8-699.97593428-278.62536094 95.05590997L433.51337845 781.5092806600001zM1034.54144241 81.53219238999998l-278.62651494-95.05590997 0 699.97593428 278.62651494 95.05706396L1034.54144241 81.53219238999998z"  horiz-adv-x="1151" />

    
    <glyph glyph-name="bell" unicode="&#58899;" d="M876.584044 131.24439199999995c-57.06774 42.887786-89.817632 108.389616-89.817632 179.739641L786.766412 460.699869c0 125.422548-84.508719 231.471862-199.621457 264.101004L587.144956 760.132566c0 41.279149-33.580816 74.857918-74.857918 74.857918-41.281195 0-74.857918-33.57877-74.857918-74.857918l0-35.332716c-115.093295-32.67826-199.621457-138.678456-199.621457-264.101004L237.807662 310.98301000000004c0-71.350025-32.726356-136.802736-89.822748-179.739641-8.599865-6.432503-12.085246-17.641799-8.699126-27.827789 3.412726-10.183943 12.939707-17.057491 23.663956-17.057491l227.057319 0c-1.63422-8.187473-2.535753-16.521279-2.535753-24.952298 0-68.766177 55.998385-124.764562 124.763538-124.764562s124.764562 55.998385 124.764562 124.764562c0 8.381901-0.827855 16.764825-2.485611 24.952298l227.060389 0c10.722202 0 20.22667 6.873548 23.638373 17.057491 3.412726 10.18599-0.099261 21.395286-8.676613 27.827789L876.584044 131.24336900000003 876.584044 131.24439199999995zM487.332692 760.132566c0 13.767562 11.18269 24.952298 24.952298 24.952298 13.765515 0 24.953322-11.18576 24.953322-24.952298l0-26.098401c-8.237615 0.756223-16.522302 1.146103-24.953322 1.146103-8.433066 0-16.7198-0.388856-24.952298-1.146103L487.332692 760.132566 487.332692 760.132566zM587.142909 61.45593299999996c0-41.279149-33.580816-74.857918-74.857918-74.857918-41.281195 0-74.856895 33.57877-74.856895 74.857918 0 8.528234 1.483794 16.960277 4.285606 24.952298l141.139507 0C585.677535 78.41620999999998 587.142909 69.98416699999996 587.142909 61.45593299999996zM224.935494 136.31282799999997c12.719696 15.402805 23.810289 32.261775 32.872688 49.954739 19.859303 38.841633 29.901007 80.803327 29.901007 124.71442L287.709189 460.699869c0 123.81391 100.759845 224.574778 224.574778 224.574778 123.788328 0 224.574778-100.760868 224.574778-224.574778L736.858746 310.98301000000004c0-43.911092 10.086729-85.872786 29.922497-124.71442 9.066493-17.791202 20.128433-34.55398 32.849152-49.954739L224.889445 136.313851 224.935494 136.31282799999997 224.935494 136.31282799999997z"  horiz-adv-x="1024" />

    
    <glyph glyph-name="question" unicode="&#58920;" d="M514.53636347-66c-248.13409131 0-450 201.86590869-449.99999999 450s201.86590869 450 449.99999999 450c248.11363652 0 450-201.86590869 450.00000001-450S762.65-66 514.53636347-66zM514.53636347 794.8704547899999C287.96136348 794.8704547899999 103.64545479 610.55454521 103.64545479 384s184.31590869-410.89090869 410.87045478-410.89090869c226.55454521 0 410.87045479 184.33636348 410.87045478 410.89090869S741.07045479 794.8704547899999 514.53636347 794.8704547899999zM523.14772695 624.7909086899999c-103.84772695 0-161.81590869-64.16590869-162.53181826-165.80454522l45.10227305 0c-1.43181826 73.73863653 37.22727305 127.84090869 115.28181826 127.8409087 55.82045479 0 102.35454521-39.35454521 102.35454521-96.62727305 0-37.22727305-20.04545479-67.29545479-46.5340913-92.37272695-54.36818174-50.48181826-69.62727305-74.20909131-72.38863653-143.3659087l45.675 0c2.7 62.69318174 1.28863653 61.44545479 56.06590869 116.18181827 36.51136347 34.36363653 62.28409131 68.74772695 62.28409131 121.725C668.43636348 575.39318174 602.57272695 624.7909086899999 523.14772695 624.7909086899999M524.86590869 172.60227305c-22.58181826 0-40.90909131-18.32727305-40.9090913-40.88863653 0-22.58181826 18.32727305-40.90909131 40.9090913-40.90909131 22.58181826 0 40.90909131 18.32727305 40.90909131 40.90909131C565.775 154.27499999999998 547.44772695 172.60227305 524.86590869 172.60227305"  horiz-adv-x="1027" />

    
    <glyph glyph-name="tianjiatupian" unicode="&#59120;" d="M416.22717406 551.411295c0 35.00858437-28.27682813 63.39957469-63.23456718 63.39957469-34.89921844 0-63.20386781-28.39003125-63.20386782-63.39957469 0-35.05079531 28.30464938-63.41684344 63.20386782-63.41684344C387.95034594 487.99541156 416.22717406 516.36049969 416.22717406 551.411295zM516.08970688 189.85546968999995c19.03445437 34.99899094 55.57320094 59.01342844 98.13378562 59.01342843l44.89564031 0 0 45.04529907c0 45.93941344 27.49879594 85.33989937 66.85899 102.85666312l0 2.07027657 0.06235781 0-57.16092468 173.26620562-199.60994438-258.33364969-53.50388437 90.90124875L203.51731156 189.85546968999995 516.08970688 189.85546968999995zM515.74626031 65.31271031000006l0 0.00575625L205.41586438 65.31846562999999c-23.17788563 0-42.12599813 19.0373325-42.12599813 42.27086062L163.28986531 699.44277c0 23.25559313 18.94715344 42.28716937 42.12599813 42.28716937l590.02108593 0c23.17788563 0 42.12408-19.03157625 42.12408-42.28716937L837.56102938 398.83730062l0.01630875 0c0-0.22448813-0.01630875-0.44801625-0.01630875-0.67634156 0-23.35440563 18.88959281-42.27086062 42.15573843-42.27086062 23.26710469 0 42.15573844 18.91741406 42.15573844 42.27086062 0 0.22928438-0.01630875 0.45185344-0.01630875 0.67634157l0.01630875 0L921.87250625 741.73089844c0 46.50734813-37.95474656 84.55035469-84.31243594 84.55035469L163.28986531 826.28125312c-46.36248656 0-84.31243594-38.04300656-84.31243593-84.55035468l0-676.41243281c0-46.50734813 37.94995031-84.55035469 84.31243593-84.55035469L515.74626031-19.231889059999958l0 0.00575625c23.18364187 0.09305719 41.97921844 18.99032438 41.97921844 42.27086062C557.72643781 46.33869469000001 538.92990125 65.21869405999996 515.74626031 65.31271031000006zM921.41105937 174.21519375000003L816.0821525 174.21519375000003 816.0821525 279.88754813c0 23.35440563-18.89439 42.28716937-42.15573844 42.28716937-23.26614563 0-42.16149469-18.93372281-42.16149469-42.28716937L731.76491937 174.21519375000003 626.43121531 174.21519375000003c-23.26134844 0-42.15094125-18.93660094-42.15094125-42.28716937 0-23.33905594 18.88959281-42.27086062 42.15094125-42.27086063l105.33370407 0 0-105.69250031c0-23.34001594 18.89534906-42.27373875 42.16149468-42.27373875 23.26230844 0 42.15573844 18.93372281 42.15573844 42.27373875L816.0821525 89.65716468999995l105.32890688 0c23.29780406 0 42.15573844 18.92796656 42.15573843 42.27086062C963.56679781 155.27859280999996 944.7098225 174.21519375000003 921.41105937 174.21519375000003z"  horiz-adv-x="1024" />

    
    <glyph glyph-name="yyguanbi2" unicode="&#58995;" d="M594.41030637 383.9223277l343.31154963 343.31154963c22.75798282 22.75798282 22.75798282 59.65232355 0 82.41030637s-59.65232355 22.75798282-82.41030637 0L512 466.33263408l-343.31154963 343.31154962c-22.75798282 22.75798282-59.65232355 22.75798282-82.41030637 0s-22.75798282-59.65232355 0-82.41030637l343.31154963-343.31154963-343.31154963-343.31154962c-22.75798282-22.75798282-22.75798282-59.65232355 0-82.41030638C97.69597155-53.13968354999997 112.53138015-58.73208889 127.52213333-58.73208889s29.82616178 5.59240533 41.16631704 17.01023289L512 301.51202133000004l343.31154963-343.31154963c11.34015525-11.34015525 26.25323615-17.01023289 41.16631704-17.01023288s29.82616178 5.59240533 41.16631703 17.01023288c22.75798282 22.75798282 22.75798282 59.65232355 0 82.41030638L594.41030637 383.9223277z"  horiz-adv-x="1024" />

    
    <glyph glyph-name="bofang" unicode="&#58919;" d="M512 834C263.44999971 834 62 632.53124971 62 384c0-248.55000029 201.44999971-450 450-450s450 201.44999971 450 450C962 632.53124971 760.55000029 834 512 834zM512 4.3125C302.3 4.3125 132.3125 174.29999999999995 132.3125 384 132.3125 593.7 302.3 763.6875 512 763.6875S891.6875 593.7 891.6875 384C891.6875 174.29999999999995 721.7 4.3125 512 4.3125zM399.5 243.375L680.75 384 399.5 524.625Z"  horiz-adv-x="1024" />

    
    <glyph glyph-name="home" unicode="&#58884;" d="M953.248 374.528L532.704 823.872c-5.056 5.024-11.648 7.296-18.464 7.744l-5.152 0c-6.816-0.416-13.408-2.688-18.464-7.744L73.28 374.528c-11.616-11.648-10.912-31.168 1.6-43.68 0.192-0.192 0.416-0.256 0.608-0.416 5.568-5.984 13.28-9.76 21.888-9.76L192 320.672l0-352.736c0-9.408 4.256-17.632 10.72-23.488 5.6-6.624 13.536-10.976 22.656-10.976l191.648 0c8.768 0 16.576 3.968 22.144 10.176C446.336-50.49599999999998 451.2-41.98400000000004 451.2-32l0 9.344c-0.16 0.896-0.544 1.696-0.544 2.656L450.656 176c0 8.832 7.168 16 16 16L560 192c8.832 0 16-7.168 16-16l0-196c0-0.704-0.32-1.312-0.416-1.984L575.584-32c0-9.984 4.864-18.496 12.032-24.352 5.568-6.208 13.376-10.176 22.144-10.176l191.648 0c9.12 0 17.056 4.352 22.656 10.976 6.496 5.856 10.72 14.08 10.72 23.488L834.784 320.672l94.624 0c8.736 0 16.512 3.936 22.08 10.112 0.032 0.032 0.096 0.064 0.128 0.096C964.128 343.328 964.832 362.88 953.248 374.528zM417.376 256.672c-16.896 0-30.592-14.336-30.592-32 0-0.736 0.352-1.344 0.384-2.08l0-225.12L256-2.52800000000002 256 352.096c0 4.576-1.024 8.864-2.752 12.768-4.576 11.616-15.456 19.808-28.224 19.808l-55.68 0L494.24 737.184c15.808 15.808 19.744 15.872 34.816 0l327.712-352.544-54.976 0c-12.768 0-23.648-8.192-28.224-19.808-1.728-3.936-2.752-8.224-2.752-12.768l0-354.624-131.2 0 0 226.624c0 0.096-0.064 0.192-0.064 0.288 0 0.096 0.064 0.192 0.064 0.288 0 17.664-13.696 32-30.592 32L417.376 256.64z"  horiz-adv-x="1024" />

    
    <glyph glyph-name="shoucang1" unicode="&#58915;" d="M514.82068123 811.45055325c-25.2457821 0-48.2190576-13.88754465-58.9863372-35.6541885L353.73268948 568.48246005l-234.85798245-34.169268c-24.13262985-3.4694688-44.2059072-19.65423285-51.95606955-41.64221775-7.7501634-22.10080425-1.90288875-46.4440305 15.15327135-63.03494505l172.11206985-168.13222755-39.9123186-233.11733865c-4.06150185-23.52877695 6.3340095-47.0607774 26.73177675-60.844098 11.231451-7.47187455 24.36471555-11.3238552 37.5452574-11.3238552 10.8134817 0 21.6968031 2.5991469 31.5583023 7.70396025l204.7373223 107.856525L719.62891948-36.07645575000004c9.8378616-5.1048144 20.69861955-7.70396025 31.48953675-7.70396025 13.2041805 0 26.3363709 3.85198065 37.5678219 11.3238552 20.39776725 13.7833206 30.77071515 37.31532105 26.7339261 60.844098l-39.91339275 233.11733865 172.1346333 168.13222755c17.0325225 16.60273335 22.9012854 40.9341408 15.12855855 63.03494505-7.77272685 21.9879849-27.844929 38.1716748-51.97863405 41.64221775L675.93338683 568.48246005l-102.10272975 207.3139047C563.13429343 797.56193445 540.11374063 811.45055325 514.82068123 811.45055325L514.82068123 811.45055325z"  horiz-adv-x="1024" />

    
    <glyph glyph-name="ziliao" unicode="&#59046;" d="M287.402709 543.924339l446.716134 0c17.613146 0 31.908734 14.33345 31.908734 31.993668 0 17.660218-14.295588 31.992645-31.908734 31.992645L287.402709 607.910653c-17.613146 0-31.908734-14.33345-31.908734-31.992645C255.493975 558.257789 269.789563 543.924339 287.402709 543.924339L287.402709 543.924339M734.11782 416.463366 287.402709 416.463366c-17.613146 0-31.908734-14.33345-31.908734-31.993668 0-17.660218 14.295588-31.993668 31.908734-31.993668l446.716134 0c17.613146 0 31.908734 14.33345 31.908734 31.993668C766.026554 402.130939 751.73199 416.463366 734.11782 416.463366L734.11782 416.463366M734.11782 224.504426 287.402709 224.504426c-17.613146 0-31.908734-14.33345-31.908734-31.993668 0-17.660218 14.295588-31.993668 31.908734-31.993668l446.716134 0c17.613146 0 31.908734 14.33345 31.908734 31.993668C766.026554 210.170976 751.73199 224.504426 734.11782 224.504426L734.11782 224.504426M417.715637 736.140129l159.541623 0c26.452465 0 47.862078 21.499663 47.862078 47.989991 0 26.490328-21.442358 47.989991-47.862078 47.989991L417.715637 832.120111c-26.418696 0-47.862078-21.499663-47.862078-47.989991C369.852536 757.638769 391.295917 736.140129 417.715637 736.140129L417.715637 736.140129M829.842998 800.126442l-31.908734 0c-17.613146 0-31.908734-14.33345-31.908734-31.993668 0-17.660218 14.295588-31.993668 31.908734-31.993668l31.908734 0c35.19457 0 63.816444-28.697599 63.816444-63.986313l0-607.871511c0-35.288714-28.621874-63.986313-63.816444-63.986313L191.677531 0.294968c-35.195593 0-63.816444 28.697599-63.816444 63.986313L127.861086 672.153816c0 35.288714 28.621874 63.986313 63.816444 63.986313l31.908734 0c17.613146 0 31.908734 14.33345 31.908734 31.993668 0 17.660218-14.295588 31.993668-31.908734 31.993668l-31.908734 0c-70.485331 0-127.632889-57.300031-127.632889-127.972627l0-607.871511c0-70.672596 57.147558-127.972627 127.632889-127.972627l638.165468 0c70.485331 0 127.632889 57.300031 127.632889 127.972627L957.475887 672.153816C957.475887 742.826412 900.328329 800.126442 829.842998 800.126442L829.842998 800.126442M829.842998 800.126442"  horiz-adv-x="1024" />

    
    <glyph glyph-name="edit" unicode="&#58946;" d="M815.530015-63.469288 195.138352-63.469288c-32.114418 0-65.541739 14.130835-90.841961 39.431058-25.299199 25.300222-40.307008 57.850569-40.307008 89.964988L63.989383 710.780555c0 33.147958 15.633049 63.797002 43.11496 85.248569 24.100908 18.813484 55.6873 29.753651 88.035032 29.753651l336.698438 0c16.888645 0 30.579459-13.81054 30.579459-30.699186s-13.690814-30.699186-30.579459-30.699186L195.138352 764.384403c-33.180703 0-69.750597-21.060665-69.750597-53.603849l0-644.85482c0-33.530674 36.220946-67.997674 69.750597-67.997674l620.391662 0c32.54216 0 51.754734 34.81697 51.754734 67.997674L867.284749 398.546298c0 16.888645 13.81054 30.579459 30.699186 30.579459s30.699186-13.690814 30.699186-30.579459l0-332.620563c0-32.347732-10.015098-63.056128-28.827559-87.158059C878.403994-48.714236 848.678996-63.469288 815.530015-63.469288zM488.650199 345.786677c-9.912767 0-19.826558 3.78214-27.389814 11.346419-15.126512 15.126512-15.126512 39.650045 0 54.776557L870.335225 820.983469c15.126512 15.126512 39.652092 15.126512 54.778604 0s15.126512-39.650045 0-54.776557L516.03899 357.133096C508.475733 349.568816 498.561943 345.786677 488.650199 345.786677z"  horiz-adv-x="1024" />

    
    <glyph glyph-name="iconfontzhizuobiaozhun0247" unicode="&#59043;" d="M62.01843769 576.87243281l257.10868038 0 0 257.10868037-257.10868037 0L62.01843769 576.87243281 62.01843769 576.87243281zM383.41822871 576.87243281l257.10778125 0 1e-8 257.10868037-257.10778125 0L383.41822871 576.87243281 383.41822871 576.87243281zM704.87378193 833.9820123l0-257.10868037 257.10778125 0 0 257.10868037L704.87378193 833.9820123 704.87378193 833.9820123zM62.01843769 255.41777872l257.10868038 0L319.12711807 512.58132217l-257.10868037 0L62.01843769 255.41777872 62.01843769 255.41777872zM383.41822871 255.41777872l257.10778125 0L640.52600908 512.58132217l-257.10778125 0L383.41822871 255.41777872 383.41822871 255.41777872zM704.87378193 255.41777872l257.10778125 0L961.98156231 512.58132217l-257.10778125 0L704.87378193 255.41777872 704.87378193 255.41777872zM62.01843769-65.98111317999997l257.10868038 0 0 257.10778125-257.10868037 0L62.01843769-65.98111317999997 62.01843769-65.98111317999997zM383.41822871-65.98111317999997l257.10778125 0 1e-8 257.10778125-257.10778125 0L383.41822871-65.98111317999997 383.41822871-65.98111317999997zM704.87378193-65.98111317999997l257.10778125 0 0 257.10778125-257.10778125 0L704.87378193-65.98111317999997 704.87378193-65.98111317999997z"  horiz-adv-x="1024" />

    
    <glyph glyph-name="zhanghaoguanli" unicode="&#58887;" d="M970.667 202.666v-64l-57.6-12.8-19.2-38.4 32-51.2-44.8-44.8-51.2 32-38.4-19.2-12.8-57.6h-64l-12.8 57.6-38.4 19.2-51.2-32-44.8 44.8 32 51.2-19.2 38.4-57.6 12.8v64l57.6 12.8 19.2 38.4-32 51.2 44.8 44.8 51.2-32 38.4 19.2 12.8 57.6h64l12.8-57.6 38.4-19.2 51.2 32 44.8-44.8-32-51.2 19.2-38.4 57.6-12.8zM746.667 285.866c-64 0-108.8-51.2-108.8-108.8 0-64 51.2-115.2 108.8-115.2 64 0 115.2 51.2 115.2 115.2-6.4 57.6-51.2 102.4-115.2 108.8zM458.667 330.666c-179.2 0-320-140.8-320-320h-64c0 166.4 102.4 307.2 249.6 358.4-70.4 44.8-121.6 128-121.6 217.6 0 140.8 115.2 256 256 256s256-115.2 256-256-115.2-256-256-256zM458.667 778.666c-108.8 0-192-83.2-192-192s83.2-192 192-192 192 83.2 192 192-83.2 192-192 192z"  horiz-adv-x="1024" />

    
    <glyph glyph-name="guanyuwomen" unicode="&#58910;" d="M512 566.6133333299999m-44.37333333 0a44.37333333 44.37333333 0 1 1 88.74666666 0 44.37333333 44.37333333 0 1 1-88.74666666 0ZM482.41777778 473.65688889h59.16444444v-307.2h-59.16444444zM512-66.44622221999998c-60.75733333 0-119.808 11.94666667-175.33155555 35.38488889-53.70311111 22.64177778-101.83111111 55.18222222-143.13244445 96.48355555-41.41511111 41.41511111-73.84177778 89.54311111-96.48355555 143.13244445-23.552 55.52355555-35.38488889 114.57422222-35.3848889 175.33155555s11.94666667 119.808 35.3848889 175.33155556c22.64177778 53.70311111 55.18222222 101.83111111 96.48355555 143.13244444 41.41511111 41.41511111 89.54311111 73.84177778 143.13244445 96.48355556 55.52355555 23.552 114.57422222 35.38488889 175.33155555 35.38488889 60.75733333 0 119.808-11.94666667 175.33155555-35.38488889 53.70311111-22.64177778 101.83111111-55.18222222 143.13244445-96.48355556 41.41511111-41.41511111 73.84177778-89.54311111 96.48355555-143.13244444 23.552-55.52355555 35.38488889-114.57422222 35.3848889-175.33155556s-11.94666667-119.808-35.3848889-175.33155555c-22.64177778-53.70311111-55.18222222-101.83111111-96.48355555-143.13244445-41.41511111-41.41511111-89.54311111-73.84177778-143.13244445-96.48355555-55.52355555-23.552-114.57422222-35.38488889-175.33155555-35.38488889z m0 841.84177777c-215.83644445 0-391.39555555-175.55911111-391.39555555-391.39555555s175.55911111-391.39555555 391.39555555-391.39555555 391.39555555 175.55911111 391.39555555 391.39555555-175.55911111 391.39555555-391.39555555 391.39555555z"  horiz-adv-x="1024" />

    
    <glyph glyph-name="shijian" unicode="&#58909;" d="M896 384a384 384 0 1 1-768 0 384 384 0 0 1 768 0z m-832.00000031 0a448.00000031 448.00000031 0 1 0 896.00000062 0 448.00000031 448.00000031 0 0 0-896.00000062 0z m380.16-55.872v-31.99999969h222.46400062v63.99999938H476.16000031l31.99999969-31.99999969v242.56000031h-64.00000031v-242.56000031z"  horiz-adv-x="1024" />

    
    <glyph glyph-name="jiankong" unicode="&#58885;" d="M704.74768254 405.71746878c0 103.1704381-83.94849524 187.11893333-187.12326773 187.11893333-103.18777566 0-187.1362709-83.94849524-187.13627089-187.11893333 0-103.18777566 83.94849524-187.1351873 187.13735449-187.1351873 103.17368889 0 187.12110053 83.94849524 187.12110053 187.1351873z m-318.25053122 0c0 72.2954836 58.8285291 131.10992592 131.1261799 131.10992593 72.29656719 0 131.10884233-58.81444233 131.10884232-131.10992593s-58.81227513-131.12617989-131.10884232-131.12617989c-72.29765079 0-131.12617989 58.8252783-131.1261799 131.12617989z m0 0M759.2396529-0.26548147999994853h-67.14622644l-50.26160424 125.62150264c137.78813968 50.78173122 236.51040846 183.01643175 236.51040846 338.21690582 0 198.89547513-161.82450794 360.71998307-360.71889946 360.71998307-198.89439154 0-360.71889947-161.82342434-360.71889948-360.71998307 0-152.83931429 95.71636825-283.45837037 230.22120635-335.91209312-0.1007746-0.22647195-0.29907302-0.36842328-0.39442963-0.60248042l-50.82074074-127.32816931h-48.75540317c-15.46727619 0-28.0066709-12.53831111-28.0066709-28.00125291 0-15.46835979 12.53939471-28.00775449 28.0066709-28.0077545h67.64468148c0.02167195 0 0.0476783-0.01408678 0.06935027-0.01408677 0.03034074 0 0.06068148 0.01408678 0.09102222 0.01408677H673.05244444c0.03034074 0 0.06068148-0.01408678 0.09102222-0.01408677 0.02167195 0 0.0476783 0.01408678 0.06935027 0.01408677h86.02683597c15.4629418 0 28.00342011 12.53939471 28.00342011 28.0077545-0.0010836 15.4629418-12.5404783 28.0055873-28.0045037 28.0055873zM212.91452274 463.57292698c0 168.01618624 136.69153862 304.70880846 304.70880848 304.70880847 168.02160424 0 304.70772487-136.69153862 304.70772486-304.70880847 0-168.01943703-136.69045503-304.70880846-304.70772486-304.70880846s-304.70772487 136.69370582-304.70772487 304.70772486z m225.83480213-357.27414179c0.68808465 1.72833862 0.63173757 3.50327195 0.96115132 5.26628571 25.12646773-5.56210794 51.14148571-8.70995979 77.91393862-8.70995979 24.2682582 0 47.96112592 2.48685714 70.90197672 7.08131217 0.31532698-1.31873862 0.20805079-2.65481481 0.72275979-3.94971428l42.51713015-106.25544127H396.21485714l42.53555132 106.56751746z m0 0M477.83903492 664.28884656c0-11.36044021 4.67680846-22.65478095 12.71277036-30.68965926 8.0348783-8.02946032 19.32163386-12.70843598 30.68315768-12.70843598s22.65369735 4.67897566 30.68857566 12.70843598c8.0348783 8.0348783 12.70843598 19.32921905 12.70843598 30.68965926 0 11.36044021-4.67355767 22.65369735-12.70843598 30.68857566-8.0348783 8.03054392-19.32705186 12.70843598-30.68749207 12.70843598-11.363691 0-22.64936297-4.67789206-30.68424127-12.70843598-8.0359619-8.0348783-12.71277037-19.32813545-12.71277036-30.68749206z m0 0"  horiz-adv-x="1024" />

    
    <glyph glyph-name="cloud-home" unicode="&#58935;" d="M938.79473762 445.22747722L577.68130532 818.79753799a29.18545339 29.18545339 0 0 1-3.55887945 4.34374832 29.00602335 29.00602335 0 0 1-3.54456908 3.00517813l-2.12233825 2.19499092c-2.47679516 2.47679516-9.17625087 4.39548582-16.85871908 4.05754086-7.68356899 0.33794494-14.38082311-1.57964492-16.85981986-4.05754086L88.23685966 449.7385468c-7.49973575-4.64426613-16.50646377-14.97745555-16.95118609-27.87110075-0.00550399-0.11007979-0.00660479-0.22015956-0.00990718-0.32803777-0.00550399-0.22126036-0.01871356-0.43921835-0.01871356-0.6615795 0-0.14640612 0.01100798-0.29061063 0.01320957-0.43701673a24.89344258 24.89344258 0 0 1 0.08916463-1.83833244c0.01541117-0.17502685 0.02751995-0.34895292 0.04513271-0.52728215 1.63248321-16.72222014 17.42342837-28.72421909 24.02381227-28.72311829h3.31450233a25.34036651 25.34036651 0 0 1 8.57741685 0h88.64284766v-411.00929645l-0.00110079-0.02091518c0-24.56760642 17.28692943-29.91418158 27.94375342-31.0755233 1.17234971-0.20694999 2.36451378-0.32473537 3.583097-0.32473537 0.23777233 0 0.47224228 0.02091516 0.71001462 0.02972154 0.90705742-0.02641915 1.69302709-0.03082234 2.31057468-0.03082233h184.54655797c0.44362154 0 0.96870211 0.00660479 1.55872975 0.02531835 0.2047484-0.00550399 0.40729521-0.02531835 0.6131444-0.02531835 1.32536062 0 2.62320128 0.14420452 3.8946228 0.38858164 10.1878841 1.29894147 26.90790265 6.86457539 27.52545023 29.83492414 0.06274548 0.42160558 0.1045758 0.81789279 0.1045758 1.15803932V200.56194548999997h126.37709717l0.07705584-219.75007321c-0.05063671-0.69570424-0.08586223-1.39801328-0.08586223-2.11022948 0-31.52354803 19.22763605-31.52574963 26.19238405-31.52354803l192.58018067-0.45462952c6.84476103-0.00220159 32.64636183 1.40021487 33.55341926 29.88335924 0.24217553 0.96209732 0.37096888 1.80200607 0.37096888 2.47679517V296.26200816999994c0.00220159 6.96805039-1.5323106 33.62937432-31.52354803 33.62937432-29.99564061-0.00220159-31.52354803-26.66572712-31.52574962-33.62937432v-286.50575723l-126.59725675 0.35996091V229.97196164000002c0.00220159 6.96805039-1.5345122 33.62937432-31.52354803 33.62937432-0.511871 0-0.99622205-0.02531835-1.49268188-0.04183032a48.75433678 48.75433678 0 0 1-2.1498582 0.0517375H419.2764947c-0.41720239 0-0.87183189-0.0517375-1.35508215-0.14530532-0.23446994 0.00330239-0.45573031 0.01981436-0.69460345 0.01981436-29.99453981-0.0011008-31.52354803-26.66792872-31.52464883-33.62937431v-219.88437055H259.01023492V415.84388022c0.0011008 3.71299115-0.43591595 13.01143058-5.37409511 20.89204238-7.37534559 14.73087682-24.85271305 15.666555-30.29505762 15.6676558h-34.79842164l360.30764828 305.5143345L894.2124247 400.64406349c4.92496958-4.92607038 24.86151944-22.69735087 46.07059161-1.48827869 21.20907218 21.20907218 3.43669089 41.14562204-1.48827869 46.07169242z"  horiz-adv-x="1024" />

    
    <glyph glyph-name="cloud-big_data" unicode="&#58976;" d="M842.53445689 230.44672475000004c-2.83989333 0-5.6567277-0.10801303-8.44686222-0.30947557L678.87407408 413.37954608l110.02402133 137.0115034c16.05510637-8.39346252 34.30081422-13.14846341 53.63636148-13.1484634 64.05051733 0 116.15891911 52.10718815 116.15891911 116.1589191 0 64.05051733-52.10718815 116.15891911-116.15891911 116.15891912-64.05051733 0-116.15891911-52.10718815-116.15891911-116.15891912 0-27.2751123 9.45417482-52.38268208 25.2519917-72.22431288l-104.57725156-130.22731378-117.48905717 138.70087585a24.2034157 24.2034157 0 0 1-0.9951763 1.12746193c-0.05097245 0.0533997-0.10315852 0.10437215-0.1517037 0.15655822-0.21845333 0.22694875-0.43690667 0.45389748-0.66628267 0.67477807-0.21602608 0.2087443-0.43690667 0.41142045-0.66021453 0.61045571-0.065536 0.05946785-0.12864475 0.12014933-0.19539437 0.17961718a23.99952592 23.99952592 0 0 1-13.87178666 5.92008534l-0.09951763 0.01092266a25.77142518 25.77142518 0 0 1-0.8641043 0.05097244c-0.10679941 0.00485452-0.21481245 0.01456355-0.32403911 0.01820445-0.21359882 0.00728178-0.425984 0.00606815-0.63958281 0.00728178-0.1844717 0-0.36894341 0.00485452-0.55098785 0.00242726-0.13592652-0.00242725-0.27185303-0.01092267-0.40656593-0.01456356-0.262144-0.00970903-0.524288-0.01820445-0.786432-0.03398163-0.05704059-0.00364089-0.11286755-0.01092267-0.17112178-0.01456355-3.00980148-0.2172397-5.996544-0.9951763-8.79031941-2.35201422a23.93641718 23.93641718 0 0 1-5.9722714-4.11420445c-0.07645867-0.07160415-0.14927645-0.14806282-0.22452148-0.21966697-0.20388978-0.196608-0.40777955-0.39200237-0.60560119-0.59710578-0.23423052-0.23908503-0.45753837-0.48666548-0.67841896-0.73303228-0.03640889-0.04126341-0.07524503-0.08009955-0.1104403-0.12136297-0.33496178-0.3810797-0.65778725-0.76944118-0.96483555-1.1675117l-110.95002074-139.89023289L269.39543703 580.1176936300001c16.30996859 20.00547082 26.10517333 45.51960652 26.10517334 73.28259792 0 64.05051733-52.10718815 116.16013275-116.15891912 116.16013275-64.05051733 0-116.15891911-52.10840178-116.1589191-116.16013275 0-64.05051733 52.10840178-116.15891911 116.1589191-116.1589191 18.84888178 0 36.66132385 4.51712948 52.41787734 12.51980325l118.50365156-139.21424118L205.13374815 227.55828622a116.05333333 116.05333333 0 0 1-25.7920569 2.89086578c-64.0493037 0-116.15891911-52.10718815-116.1589191-116.15770548 0-64.05051733 52.10840178-116.16013275 116.1589191-116.16013274s116.15891911 52.10840178 116.15891912 116.16013274c0 37.46838755-17.8379283 70.84562963-45.46256592 92.09992533l132.16305303 166.63984356 60.32952889-70.87232949c-20.13532918-18.50663822-32.77528178-45.04507733-32.77528178-74.48409125 0-55.79298133 45.39096178-101.18272948 101.18394311-101.18272949 55.7917677 0 101.18272948 45.38974815 101.18272948 101.18272949 0 26.56392533-10.29522015 50.76491378-27.09670873 68.83707258l63.0213594 78.47936 135.89981867-160.4369825c-34.41125452-20.185088-57.57094875-57.56852148-57.57094874-100.26401186 0-64.05051733 52.10840178-116.15891911 116.15891911-116.15891911s116.16013275 52.10840178 116.16013274 116.15891911c-0.00121363 64.0493037-52.10840178 116.15649185-116.16013274 116.15649186z m0 490.77847228c37.39921067 0 67.82369185-30.42569482 67.82369186-67.82369185s-30.42569482-67.82490548-67.82369186-67.82490548c-37.39799703 0-67.82369185 30.42690845-67.82369186 67.82490548s30.42690845 67.82369185 67.82369186 67.82369185zM111.51921303 653.40150518c0 37.39799703 30.42569482 67.82369185 67.82369186 67.82369185 37.39799703 0 67.82369185-30.42569482 67.82369186-67.82369185s-30.42569482-67.82490548-67.82369186-67.82490548c-37.39799703 0-67.82369185 30.42690845-67.82369186 67.82490548z m67.82247822-606.93496415c-37.39799703 0-67.82369185 30.42569482-67.82369184 67.82369186s30.42569482 67.82247822 67.82369184 67.82247822 67.82369185-30.42569482 67.82369186-67.82247822c0-37.39799703-30.42569482-67.82369185-67.82369186-67.82369186z m331.59759645 128.35832415c-29.14167467 0-52.84992948 23.70704118-52.84992948 52.84871585s23.70825482 52.84750222 52.84992948 52.84750222c29.14046103 0 52.84871585-23.70704118 52.84871585-52.84750222-0.00121363-29.14046103-23.70946845-52.84871585-52.84871585-52.84871585z m33.48768238 148.32738607a100.71548208 100.71548208 0 0 1-33.488896 5.70405927 101.01039408 101.01039408 0 0 1-24.99712949-3.12630993l-73.12482607 85.90434608 98.7384794 124.49412741 104.66948741-123.568128-71.79711525-89.40809483z m298.10748681-276.68571022c-37.39921067 0-67.82369185 30.42569482-67.82369186 67.82369186s30.42569482 67.82247822 67.82369186 67.82247822c37.39799703 0 67.82369185-30.42569482 67.82369186-67.82247822 0-37.39799703-30.42448118-67.82369185-67.82369186-67.82369186z"  horiz-adv-x="1024" />

    
    <glyph glyph-name="gongzuotai1" unicode="&#58988;" d="M898.39655774 780.97288653H125.72362783a64.29927166 64.29927166 0 0 1-64.35936444-64.35936444v-513.13222495a64.29927166 64.29927166 0 0 1 64.35936444-64.41945722H898.39655774a64.29927166 64.29927166 0 0 1 64.29927166 64.41945722V716.6135220799999a64.29927166 64.29927166 0 0 1-64.29927166 64.35936445z m-25.77980146-549.42826243h-721.11332702V693.41771008h721.11332702v-461.87308598zM61.36426339 51.38647791999995a64.29927166 64.29927166 0 0 1 64.35936444-64.35936445H898.39655774a64.29927166 64.29927166 0 0 1 64.29927166 64.35936445v56.7876745h-901.3916588l0.06009278-56.7876745z m411.63552418 13.22041099h78.1807032c9.61484436 0 17.24662707-7.6317827 17.24662707-16.88607041a17.00625597 17.00625597 0 0 0-17.24662707-16.88607041H472.99978757a17.00625597 17.00625597 0 0 0-17.30671985 16.88607041c0 9.25428769 7.6317827 16.88607041 17.30671985 16.88607041z"  horiz-adv-x="1024" />

    
    <glyph glyph-name="yunying" unicode="&#58918;" d="M292.625 558.375c28.125-33.75 67.5-50.625 112.5-50.625 90 0 163.125 73.125 163.125 163.125C573.875 755.25 512 828.375 422 834h-5.625c-95.625 0-168.75-73.125-168.75-163.125 0-22.5 5.625-45 16.875-67.5-73.125-61.875-118.125-146.25-135-241.875l56.25-5.625c11.25 78.75 50.625 146.25 106.875 202.5z m123.75 219.375c56.25 0 106.875-50.625 106.875-106.875S472.625 564 416.375 564s-112.5 45-112.5 106.875S354.5 777.75 416.375 777.75z m-45-748.125c11.25 22.5 16.875 45 16.875 67.5 0 90-73.125 163.125-163.125 163.125S62 187.125 62 97.125 135.125-66 225.125-66c39.375 0 84.375 16.875 112.5 45 56.25-28.125 112.5-45 174.375-45 45 0 90 5.625 129.375 22.5L624.5 7.125c-84.375-22.5-174.375-16.875-253.125 22.5z m-146.25-39.375c-56.25 0-106.875 50.625-106.875 106.875S168.875 204 225.125 204 332 153.375 332 97.125 281.375-9.75 225.125-9.75zM883.25 355.875c-11.25 118.125-78.75 225-180 281.25l-28.125-45c78.75-45 135-123.75 151.875-213.75h-28.125c-90 0-163.125-73.125-163.125-163.125s73.125-163.125 163.125-163.125S962 125.25 962 215.25c0 56.25-33.75 106.875-78.75 140.625z m-90-236.25c-56.25 0-106.875 50.625-106.875 106.875S737 333.375 793.25 333.375c61.875 0 106.875-50.625 106.875-106.875v-5.625c0-56.25-45-101.25-106.875-101.25z"  horiz-adv-x="1024" />

    
    <glyph glyph-name="jingbao" unicode="&#59153;" d="M213.339-14.183c0 27.464 22.352 49.817 49.917 49.817h497.466c27.565 0 49.917-22.052 49.917-49.817 0-27.464-22.352-49.817-49.917-49.817H263.256c-27.564 0.1-49.917 22.152-49.917 49.817z m74.675 373.174c0 123.79 100.235 224.125 224.025 224.125 123.69 0 224.025-100.135 224.025-224.125V85.35h-448.05V358.991z m186.638 435.621C474.652 815.261 491.19 832 511.939 832c20.648 0 37.287-16.739 37.287-37.388v-99.433c0-20.648-16.539-37.388-37.287-37.388-20.648 0-37.287 16.739-37.287 37.388v99.433zM474.652 794.612C474.652 815.261 491.19 832 511.939 832c20.648 0 37.287-16.739 37.287-37.388v-99.433c0-20.648-16.539-37.388-37.287-37.388-20.648 0-37.287 16.739-37.287 37.388v99.433zM218.05 547.032c17.842-10.324 24.056-33.077 13.732-51.02-10.324-17.842-33.178-23.956-51.02-13.632L94.66 532.097c-17.842 10.324-24.056 33.077-13.732 51.02 10.324 17.842 33.178 23.956 51.02 13.632l86.102-49.717zM218.05 547.032c17.842-10.324 24.056-33.077 13.732-51.02-10.324-17.842-33.178-23.956-51.02-13.632L94.66 532.097c-17.842 10.324-24.056 33.077-13.732 51.02 10.324 17.842 33.178 23.956 51.02 13.632l86.102-49.717zM363.892 665.51c10.324-17.842 4.31-40.695-13.632-51.02-17.842-10.324-40.695-4.21-51.02 13.732l-49.817 86.102c-10.324 17.842-4.31 40.695 13.632 51.02 17.842 10.324 40.695 4.21 51.02-13.732l49.817-86.102zM363.892 665.51c10.324-17.842 4.31-40.695-13.632-51.02-17.842-10.324-40.695-4.21-51.02 13.732l-49.817 86.102c-10.324 17.842-4.31 40.695 13.632 51.02 17.842 10.324 40.695 4.21 51.02-13.732l49.817-86.102z m360.846-37.388c-10.324-17.842-33.077-24.056-51.02-13.732-17.842 10.324-23.956 33.178-13.632 51.02l49.717 86.102c10.324 17.842 33.078 24.056 51.02 13.732 17.842-10.324 23.956-33.178 13.632-51.02l-49.717-86.102zM724.738 628.122c-10.324-17.842-33.077-24.056-51.02-13.732-17.842 10.324-23.956 33.178-13.632 51.02l49.717 86.102c10.324 17.842 33.078 24.056 51.02 13.732 17.842-10.324 23.956-33.178 13.632-51.02l-49.717-86.102z m118.477-145.741c-17.842-10.324-40.695-4.31-51.02 13.632-10.324 17.842-4.21 40.695 13.732 51.02l86.102 49.717c17.842 10.324 40.695 4.31 51.02-13.632 10.324-17.842 4.21-40.695-13.732-51.02l-86.102-49.717zM843.215 482.381c-17.842-10.324-40.695-4.31-51.02 13.632-10.324 17.842-4.21 40.695 13.732 51.02l86.102 49.717c17.842 10.324 40.695 4.31 51.02-13.632 10.324-17.842 4.21-40.695-13.732-51.02l-86.102-49.717z"  horiz-adv-x="1024" />

    
    <glyph glyph-name="jiankong1" unicode="&#58979;" d="M661.0625 531.41666667c5.625 0 33.75 0 78.75 30.9375 5.625 2.8125 182.8125 112.5 196.875 123.75 5.625 5.625 0 11.25-8.4375 11.25H211.0625c-16.875 0-28.125-11.25-28.125-28.125V531.41666667h478.125zM661.0625 469.54166667h-478.125v-81.5625c0-16.875 11.25-28.125 28.125-28.125H315.125v-30.9375c0-28.125 22.5-50.625 50.625-50.625h2.8125v-39.375c0-33.75-28.125-61.875-61.875-61.875H174.5c0 28.125-22.5 50.625-50.625 50.625H70.4375V81.41666667000004h53.4375c28.125 0 50.625 22.5 50.625 50.625h132.1875c59.0625 0 106.875 47.8125 106.875 106.875V278.29166667000004c25.3125 2.8125 47.8125 22.5 47.8125 50.625v30.9375H821.375c16.875 0 28.125 11.25 28.125 28.125V562.35416667c-42.1875-28.125-75.9375-50.625-81.5625-53.4375-53.4375-33.75-87.1875-39.375-106.875-39.375zM936.6875 612.97916667l-30.9375-19.6875v-160.3125h28.125c16.875 0 28.125 11.25 28.125 28.125V587.66666667c0 14.0625-11.25 25.3125-25.3125 25.3125z"  horiz-adv-x="1024" />

    
    <glyph glyph-name="wendang" unicode="&#58931;" d="M715.49368488 565.6646484400001a76.92011719 76.92011719 0 0 0-76.84541015 76.84541015V830.15917969H204.53450519A70.65 70.65 0 0 1 133.95833332 759.58476562V8.35546875a70.62011719 70.62011719 0 0 1 70.57529297-70.54453125h617.87988281a70.62011719 70.62011719 0 0 1 70.55947266 70.54453125V565.6646484400001H715.49368488z m4.64941406-430.875H300.27815754a18.53964844 18.53964844 0 1 0 0 37.05029297h419.8649414a18.53964844 18.53964844 0 1 0 0-37.05029297z m0 135.33046875H300.27815754a18.53964844 18.53964844 0 0 0 0 37.06523437h419.8649414a18.53964844 18.53964844 0 1 0 0-37.06523437z m0 135.40429687H300.27815754a18.53964844 18.53964844 0 1 0 0 37.06523438h419.8649414a18.53964844 18.53964844 0 0 0 0-37.06435547zM715.49368488 606.02929688H857.12239582L679.01292316 791.34052734v-148.82958984a36.49482422 36.49482422 0 0 1 36.48076172-36.47988281z"  horiz-adv-x="1024" />

    
    <glyph glyph-name="gongzuotai2" unicode="&#59028;" d="M95.75 61.856250000000045h832.5a35.8875 35.8875 0 0 0 0-71.60625H95.75a35.8875 35.8875 0 0 0 0 71.60625zM815.75 777.75H208.25A107.60625 107.60625 0 0 1 107 664.40625v-417.6a107.775 107.775 0 0 1 101.25-113.4h608.0625a107.60625 107.60625 0 0 1 100.6875 113.4V664.29375A107.775 107.775 0 0 1 815.75 777.75zM512 169.23749999999995a35.83125 35.83125 0 1 0 33.75 35.775 34.7625 34.7625 0 0 0-33.75-35.775z m337.5 107.38125H174.5V664.29375a35.6625 35.6625 0 0 0 33.4125 37.575H815.75a35.6625 35.6625 0 0 0 33.4125-37.575v-387.675z"  horiz-adv-x="1024" />

    
    <glyph glyph-name="refresh" unicode="&#58880;" d="M913.31200001 511.91146667L732.144 511.91146666c-23.11242666 0-41.80714667 18.72650667-41.80714667 41.80917334 0 23.08074667 18.69578667 41.80714667 41.80714667 41.80714666l72.72736 1e-8c-65.60416 92.70026667-173.48373333 153.296-295.70453333 153.296-200.11413333 0-362.33813333-162.22506667-362.33813334-362.336 0-200.11306667 162.22506667-362.33706667 362.33813334-362.33706667 200.11306667 0 362.33706667 162.22506667 362.33706666 362.33706667 0 23.08074667 18.69482667 41.80714667 41.80618666 41.80714666 23.08266666 0 41.81024-18.72650667 41.81024001-41.80714666 0-246.29226667-199.68-445.95413333-445.95413333-445.95413334-246.27733332 0-445.95519999 199.6608-445.9552 445.95413334 0 246.2912 199.67786667 445.95306667 445.9552 445.95306667 149.4688 0 281.488-73.69237333 362.33706666-186.59733334l0 75.10858667c0 23.08266666 18.69482667 41.80821333 41.80618667 41.80821333 23.08266666 0 41.81024-18.72554667 41.81024-41.80821333l0-167.232C955.12213333 530.63786667 936.39253333 511.91146667 913.31200001 511.91146667Z"  horiz-adv-x="1024" />

    
    <glyph glyph-name="jiegou" unicode="&#59161;" d="M239.03809498 373.07142832H622.30952418v-124.45714248h50.65714248V373.07142832H1056.23809498v-146.31428584h50.65714336V424.24285752h-433.92857168v95.14285664h-43.45714248v-95.14285664h-433.92857168v-197.55H246.23809498l-7.2 146.31428496z m101.18571416-190.28571416H94.39523834c-14.46428584 0-21.72857168-14.65714248-21.72857168-29.25v-197.61428584c0-14.59285752 7.26428584-21.92142832 21.72857168-21.92142832H333.02380914c21.66428584 0 28.92857168 14.65714248 28.92857168 29.25v197.55c0 7.32857168-7.26428584 21.98571416-21.72857168 21.98571416z m433.92857168 0H528.32380914c-14.46428584 0-21.72857168-14.65714248-21.72857081-29.25v-197.61428584c0-14.59285752 7.26428584-21.92142832 21.72857081-21.92142832H766.95238082c14.46428584 0 21.66428584 7.32857168 21.66428584 21.92142832v197.61428584c7.26428584 14.59285752 0 29.25-14.46428584 29.25z m433.92857168 0H969.45238082c-14.46428584 0-21.66428584-7.32857168-21.66428584-21.98571416v-197.55c0-14.59285752 7.2-21.92142832 21.66428584-21.92142833h238.62857168c14.46428584 0 21.72857168 7.32857168 21.72857168 21.92142833v197.55c0 7.32857168-7.26428584 21.98571416-21.72857168 21.98571416z m-752.14285752 409.75714336h383.33571416c21.66428584 0 28.92857168 14.65714248 28.92857168 29.25V812.14285752c0 14.59285752-7.26428584 21.92142832-21.72857168 21.92142832H456.00238082c-7.26428584 0-14.46428584 0-14.46428584-7.32857168-7.26428584 0-7.26428584-7.32857168-7.26428584-14.59285664v-197.61428584c0-7.26428584 7.26428584-21.92142832 21.72857168-21.9214292z"  horiz-adv-x="1316" />

    
    <glyph glyph-name="building" unicode="&#59014;" d="M905.74904375-9.749943750000057v674.999775h-281.25028125V834H118.25005625v-843.74994375h-56.25005625v-56.25005625H961.9991v56.25005625h-56.25005625z m-562.4978625 112.5001125H230.75016875v112.5001125h112.5010125v-112.5001125z m0 168.75016875H230.75016875v112.5001125h112.5010125v-112.5001125z m0 168.74926875H230.75016875v112.5001125h112.5010125v-112.5001125z m0 168.75016875H230.75016875v112.5001125h112.5010125V608.999775z m168.74746875-506.24960625H399.4994375v112.5001125h112.5001125v-112.5001125z m0 168.75016875H399.4994375v112.5001125h112.5001125v-112.5001125z m0 168.74926875H399.4994375v112.5001125h112.5001125v-112.5001125z m0 168.75016875H399.4994375v112.5001125h112.5001125V608.999775z m281.25028125-506.24960625H680.74881875v112.5001125h112.5001125v-112.5001125z m0 168.75016875H680.74881875v112.5001125h112.5001125v-112.5001125z m0 168.74926875H680.74881875v112.5001125h112.5001125v-112.5001125z"  horiz-adv-x="1024" />

    
    <glyph glyph-name="app1" unicode="&#58882;" d="M540.12445068 348.56359863V130.875c0-15.5324707-12.59143067-28.12829589-28.12719726-28.12829589a27.54821778 27.54821778 0 0 0-20.05334473 8.069458A27.56030273 27.56030273 0 0 0 483.87554932 130.875V348.56359863L287.00164795 462.18530273c-13.29125977 7.82006836-17.80554199 24.88293458-10.1282959 38.25109864a27.57568359 27.57568359 0 0 0 16.98596191 13.15722656 27.57897949 27.57897949 0 0 0 21.26403809-3.02893066l196.87390137-112.5032959 195.18640137 112.5032959a27.59545898 27.59545898 0 0 0 21.26953125 3.02893066 27.56799317 27.56799317 0 0 0 16.98156738-13.15722657c7.68164063-13.36816406 3.16735839-30.43103028-10.12390137-38.25109863L540.12445068 349.6875v-1.12390137zM118.24945068 608.99890136v-449.99670409l393.74780274-225.00109863L905.74945068 159.00219727V608.99890136L511.99725342 834 118.24945068 608.99890136z m731.2532959-421.875L511.99725342-9.75 174.49835205 187.12390136V580.87719727L511.99725342 777.75109864l337.50439453-196.87390137v-393.75329591z"  horiz-adv-x="1024" />

    
    <glyph glyph-name="menjin" unicode="&#58903;" d="M611.29035532 174.35486132999995c-51.9205456 0-94.01127276 24.06124511-94.01127276 53.74248398V443.07104297c0 29.68123887 42.09072714 53.74248398 94.01127275 53.74248486h93.89845986v78.73256074h20.26883057v-78.73256074h59.34179531V834H153.86910561v-898.90758896l630.93033544-1.09241104V174.35486132999995h-173.50908573z m-111.24729932 393.45785947c-28.61139112 0.00187998-51.88670156-21.58122744-51.88670245-48.12249023 0-14.94779239-13.0750875-27.06960586-29.19426064-27.06960586-16.12105312 0-29.19238066 12.12181348-29.19237978 27.06960586 0 56.39172188 49.46873203 102.27110362 110.27522284 102.27110361 16.12105312 0 29.19050068-12.12557432 29.1905007-27.07524668 0-14.95155322-13.06944756-27.0733667-29.19238067-27.0733667z m-146.364271-43.23014297c0-14.94967237-13.06568672-27.06960586-29.18861983-27.06960674s-29.19238066 12.11805352-29.19238066 27.0733667c-0.00376084 49.41608555 20.746408 95.87457685 58.42612617 130.82044659 37.67407734 34.93646894 87.76140381 54.17493574 141.03195118 54.17493661h0.02820322c16.11917315-0.00376084 29.19238066-12.12369346 29.18485987-27.07336669 0-14.95155322-13.07132754-27.06960586-29.19050069-27.06960586h-0.0225624c-37.67971817 0-73.10128536-13.60907227-99.75160108-38.32463584s-41.32547578-57.57626425-41.32547578-92.53153477z m371.78262071-531.14677119l-512.25990557 0.8874668V774.66384463h512.25802558v-106.82124874h-20.26883056V754.86883154h-471.71096367v-741.68877656h471.71284365v87.02247481h20.26883057v-106.76672315zM331.05027133 384.02444326c0-17.20030253-13.9475127-31.14781523-31.1515752-31.14781523-17.20406338 0-31.15157519 13.9475127-31.15157519 31.14781523 0 17.20406338 13.9475127 31.15157519 31.15157519 31.1515752 17.20406338 0 31.15157519-13.9475127 31.1515752-31.1515752zM578.55187006 216.96265078h285.46335c17.1965417 0 31.18918008 16.03832344 31.18918008 35.76000761v100.77256407h-347.84171016v-100.77256407c0-19.7198042 13.98699756-35.76000761 31.18918008-35.76000761zM547.36268998 420.60986953v-30.14377383h347.84547011v30.14377383c0 19.71792422-13.99075752 35.76188848-31.18917919 35.76188848H578.55187006c-17.20218252-0.00187998-31.18918008-16.04396426-31.18918008-35.76188848z"  horiz-adv-x="1024" />

    
    <glyph glyph-name="wuyebaoxiu1" unicode="&#58954;" d="M159.68 368.15999999999997h50.88v-178.56H159.68v178.56z m755.04 6.24L510.56 778.08 106.88 374.4 70.4 410.4 492.32 832.32c10.08 10.08 25.92 10.08 36 0l421.92-421.92-35.52-36z m-82.08-446.4H392.96v50.88h414.24v389.28h50.88v-414.24c0.48-13.92-11.04-25.92-24.96-25.92h-0.48zM275.84-65.75999999999999c-7.68-0.96-14.88 1.92-20.64 7.2l-92.64 94.56c-9.6 10.08-9.6 25.92 0 35.52l184.32 188.64c-24.48 96.48 34.08 193.92 130.56 218.4 34.56 8.64 71.52 6.72 105.12-5.28 13.44-4.8 19.68-19.68 14.88-32.64-1.44-3.36-3.36-6.24-5.76-9.12l-74.4-73.92 18.24-42.24 35.04-16.8 77.76 77.76c6.24 6.24 14.88 8.64 23.52 6.72 8.64-1.92 15.36-8.16 18.24-16.32 34.56-93.12-12.96-196.32-105.6-231.36-34.08-12.48-71.52-14.88-106.56-5.76l-183.84-188.16c-4.8-4.8-11.04-7.68-17.76-7.68l-0.48 0.48z m-59.04 120l58.08-58.08 176.64 180.48c6.72 7.2 17.28 9.6 26.4 6.24 67.2-23.52 140.64 11.52 164.16 78.24 4.8 13.92 7.2 28.32 7.2 43.2L593.6 248.64c-7.68-7.68-19.2-9.6-29.28-5.28l-59.52 29.28c-5.28 2.88-9.6 7.2-12.48 12.96L464 351.84000000000003c-3.84 9.6-1.92 20.64 5.76 28.32l50.88 50.88C449.6 431.04 392 373.44000000000005 392 302.4c0-14.88 2.4-29.28 7.2-43.2 3.36-9.12 0.96-19.68-5.76-26.4l-176.64-178.56z"  horiz-adv-x="1024" />

    
    <glyph glyph-name="wenjianjia-" unicode="&#58901;" d="M863.84 661.44H505.76L407.36 766.08H166.4c-47.04 0-87.36-38.4-87.36-87.36v-588.96c0-47.04 38.4-87.36 87.36-87.36h697.44c47.04 0 87.36 38.4 87.36 87.36V574.0799999999999c0.48 48.96-40.32 87.36-87.36 87.36z m-180.96-377.76H350.24c-17.28 0-32.16 14.88-32.16 32.16s14.88 32.16 32.16 32.16h332.64c17.28 0 32.16-14.88 32.16-32.16-0.48-17.28-15.36-32.16-32.16-32.16z"  horiz-adv-x="1024" />

    
    <glyph glyph-name="zhipai" unicode="&#58902;" d="M769.72727305 576.27272695C769.72727305 719.45454521 655.18181826 834 512 834S254.27272695 719.45454521 254.27272695 576.27272695c0-65.45454521 24.54545479-126.81818174 65.4545461-171.81818174C168.36363653 334.90909131 62 179.45454521 62-0.545454790000008c0-36.81818174 28.63636347-65.45454521 65.45454521-65.45454521 36.81818174 0 65.45454521 28.63636347 65.4545461 65.45454521 0 175.90909131 143.18181826 319.09090869 319.09090869 319.09090958 143.18181826 0 257.72727305 118.63636348 257.72727305 257.72727216zM798.36363652 273.54545479h-171.81818173c-28.63636347 0-49.09090869-20.45454521-49.09090958-49.09090958s20.45454521-49.09090869 49.09090958-49.09090868h290.45454521c8.18181826 0 12.27272695 0 16.36363653 4.09090868 12.27272695 4.09090869 20.45454521 12.27272695 24.54545478 24.54545479 4.09090869 12.27272695 4.09090869 24.54545479 0 36.81818174-4.09090869 4.09090869-4.09090869 12.27272695-12.27272783 16.36363652l-94.09090869 94.09090869c-20.45454521 20.45454521-49.09090869 20.45454521-69.54545479 0s-20.45454521-49.09090869 0-69.5454539l16.36363652-8.18181826zM912.90909131 126.27272694999999h-290.4545461c-8.18181826 0-12.27272695 0-16.36363652-4.09090869-12.27272695-4.09090869-20.45454521-12.27272695-24.5454539-24.54545478-4.09090869-12.27272695-4.09090869-24.54545479 0-36.81818174 4.09090869-4.09090869 4.09090869-12.27272695 12.27272695-16.36363653l94.09090957-94.09090868c20.45454521-20.45454521 49.09090869-20.45454521 69.5454539 0s20.45454521 49.09090869 0 69.54545478l-12.27272695 12.27272695h171.81818174c28.63636347 0 49.09090869 20.45454521 49.09090869 49.09090869s-28.63636347 45-53.18181738 45z"  horiz-adv-x="1028" />

    
    <glyph glyph-name="shenghuojiaofei" unicode="&#59132;" d="M536.837 820.666a33.193 33.193 0 0 1-50.062 0c-32.274-37.07-315.324-367.297-315.324-544.254 0-187.671 152.683-340.351 340.355-340.351S852.157 88.74 852.157 276.412c0 176.957-283.047 507.184-315.32 544.254z m-25.031-818.234c-151.075 0-273.984 122.905-273.984 273.98 0 117.444 179.237 357.251 273.984 471.2 94.743-113.948 273.98-353.755 273.98-471.2 0-151.075-122.905-273.98-273.98-273.98zM616.559 373.035s-58.467-2.281-98.446-3.97c7.83 51.892 13.093 125.761 13.344 129.314a16.59 16.59 0 0 1-12.137 17.16c-7.624 2.094-15.661-1.462-19.222-8.503l-108.5-214.541a16.602 16.602 0 0 1 1.037-16.751c3.354-4.983 9.143-7.83 15.122-7.275l73.472 6.008-26.315-148.389a16.59 16.59 0 0 1 30.402-11.699l145.951 233.264a16.6 16.6 0 0 1 0.292 17.123c-3.086 5.322-9.001 8.498-15 8.259z"  horiz-adv-x="1024" />

    
    <glyph glyph-name="shebeiguanli1" unicode="&#58981;" d="M126.28571416 769.71428584v-385.71428584h771.42857168V769.71428584H126.28571416z m0 64.28571416h771.42857168a64.28571416 64.28571416 0 0 0 64.28571416-64.28571416v-385.71428584a64.28571416 64.28571416 0 0 0-64.28571416-64.28571416H126.28571416a64.28571416 64.28571416 0 0 0-64.28571416 64.28571416V769.71428584a64.28571416 64.28571416 0 0 0 64.28571416 64.28571416zM94.14285752 191.14285752h835.71428496a32.14285752 32.14285752 0 1 0 0-64.28571504H94.14285752a32.14285752 32.14285752 0 1 0 0 64.28571504z m0-192.85714336h835.71428496a32.14285752 32.14285752 0 1 0 0-64.28571416H94.14285752a32.14285752 32.14285752 0 1 0 0 64.28571416z m224.35714248 450.96428584a128.57142832 128.57142832 0 1 1 0 257.14285752 128.57142832 128.57142832 0 0 1 0-257.14285752z m0 64.28571416a64.28571416 64.28571416 0 1 0 0 128.57142832 64.28571416 64.28571416 0 0 0 0-128.57142832z"  horiz-adv-x="1024" />

    
    <glyph glyph-name="chongdianzhuang" unicode="&#58904;" d="M869.94944844 563.1917136h-37.21366018a37.28270222 37.28270222 0 0 1-37.28270222-37.19985177v-74.56540443A37.28270222 37.28270222 0 0 1 829.21464416 414.3784981v-274.09690337h-110.14967245V752.90543428c0 39.32634663-23.87473783 71.26519487-53.25903055 71.26519487H265.96967244c-29.3704843 0-53.24522213-31.93884823-53.24522214-71.26519487v-736.3747941h-47.74947566c-17.10861779 0-30.91702603-15.97632833-30.80655877-35.62569325s13.80840823-35.63950165 30.80655877-35.63950163h616.40734342c16.98434213 0 30.79275037 15.97632833 30.79275033 35.63950163s-13.80840823 35.62569324-30.79275033 35.62569325h-62.31734635V92.91875450999999h110.14967245c46.94858799 0 46.94858799 12.8970533 46.94858799 71.38947054V414.79275037a37.13080974 37.13080974 0 0 1 31.02749329 36.68894065v74.56540445a37.28270222 37.28270222 0 0 1-37.241277 37.14461813z m-526.76315718 87.95956044c0 11.55763769 10.48058185 20.9611637 23.36382673 20.96116369h210.45394984c12.88324489 0 23.36382672-9.40352601 23.36382673-20.96116369v-73.39168975c0-11.55763769-10.48058185-20.9611637-23.36382673-20.96116369H366.55011799c-12.88324489 0-23.36382672 9.40352601-23.36382673 20.96116369z m221.41782598-166.70891258l-84.23129021-164.32005794 126.44359416-37.28270222-240.76340589-178.1698914 94.17334412 147.23905697-120.58882907 38.45641693z"  horiz-adv-x="1024" />

    
    <glyph glyph-name="location" unicode="&#58906;" d="M512.09064336 552.6436708a93.35895381 93.35895381 0 1 0-66.36359356-27.55776358A93.35895381 93.35895381 0 0 0 512.09064336 552.6436708m0 56.24033379a150.16169092 150.16169092 0 1 1 106.29423106-43.86746074A149.03688428 149.03688428 0 0 1 512.09064336 608.88400459zM769.67137197 724.73909209a358.25092558 358.25092558 0 0 1-515.16145635 0 379.05984932 379.05984932 0 0 1 0-526.97192696L512.09064336-66l257.58072861 263.76716513a379.05984932 379.05984932 0 0 1 1e-8 526.97192696z m-38.80582998-489.85330693l-218.77489863-224.96133428-218.77489776 224.96133428a321.13230557 321.13230557 0 0 0 0 447.11065283 304.82260839 304.82260839 0 0 0 437.5497964 0 321.13230557 321.13230557 0 0 0 0-447.11065283z"  horiz-adv-x="1024" />

    
    <glyph glyph-name="pingtaipeizhiguanli" unicode="&#59042;" d="M405.7067208 665.35435957C405.7067208 758.42144356 328.54628692 834 233.80944541 834 139.16048487 834 62.00005185 758.24567901 62.00005185 665.35435957c0-81.64241807 59.49614268-149.92676455 138.06268858-165.39400371v-380.52924521c0-56.50815323-46.84112842-102.38257969-104.31598447-102.38258057-18.718875 0-33.74670411-14.85206543-33.74670411-33.13152949 0-18.1915831 15.02782911-33.13153037 33.74670411-33.13153038 94.73684239 0 171.80939355 75.75432099 171.80939355 168.64564044v380.52924521c78.74231045 15.37935732 138.15057128 83.66370469 138.15057129 165.39400371z m-276.21326074 0c0 56.50815323 46.84112842 102.38257969 104.31598535 102.38258056 57.56273789 0 104.31598448-45.9623083 104.31598447-102.38258056 0-56.50815323-46.84112842-102.47046153-104.31598447-102.47046152S129.49346006 608.84620635 129.49346006 665.35435957zM683.76550449 392.39273467c0 81.7302999-59.49614268 149.92676455-138.06268946 165.39400459V800.86846963c0 18.36734678-15.02782911 33.13153037-33.74670497 33.13153037C493.23723506 834 478.20940596 819.23581641 478.20940596 800.86846963v-243.16961221c-78.65442862-15.46723916-138.06268945-83.66370469-138.06268945-165.39400459 0-82.16970996 60.11131729-150.71770372 139.3809205-165.6576501-0.87882011-2.90010762-1.31823106-5.97597891-1.31823105-9.22761474v-250.28805762c0-18.36734678 15.02782911-33.13153037 33.7467041-33.13153037 18.718875 0 33.74670411 14.76418359 33.74670497 33.13153037V217.50746981999998c0 3.16375312-0.43941006 6.23962529-1.31823105 9.22761475 79.26960234 14.85206543 139.38091963 83.4000583 139.38092051 165.6576501z m-276.12537891 0c0 56.50815323 46.84112842 102.38257969 104.31598448 102.38258056 57.56273789 0 104.31598448-45.9623083 104.31598535-102.38258056 0-56.50815323-46.84112842-102.47046153-104.31598535-102.47046152-57.56273789 0-104.31598448 45.9623083-104.31598448 102.47046152zM823.67371602 284.82511435000004c0.08788183 1.05458467 0.17576367 2.10916934 0.17576455 3.25163585V665.35435957c0 56.50815323 46.84112842 102.38257969 104.31598446 102.38258056 18.718875 0 33.74670411 14.76418359 33.74670411 33.1315295 0 18.36734678-15.02782911 33.13153037-33.74670411 33.13153037-94.82472422 0-171.80939355-75.75432099-171.80939355-168.64564043v-377.27760938c0-1.05458467 0.08788183-2.19705117 0.17576368-3.25163584-78.74231045-15.37935732-138.23845313-83.75158653-138.23845313-165.3940037 0-92.97920127 77.16043388-168.64564043 171.80939356-168.64564044 94.82472422 0 171.80939355 75.57855644 171.80939355 168.64564044 0 81.7302999-59.49614268 150.01464727-138.23845312 165.3940037z m-33.57094043-267.86446611c-57.56273789 0-104.31598448 45.9623083-104.31598447 102.38257968 0 56.50815323 46.84112842 102.47046153 104.31598446 102.47046241 57.56273789 0 104.31598448-45.9623083 104.31598536-102.47046241 0-56.42027138-46.84112842-102.38257969-104.31598535-102.38257968z"  horiz-adv-x="1024" />

    
    <glyph glyph-name="shitumoshi_x" unicode="&#58907;" d="M70.13093706 825.86906294h154.65417131v-154.65417131h-154.65417131zM313.15892148 825.86906294h154.65417261v-154.65417131h-154.65417261zM556.18690591 825.86906294h154.65417261v-154.65417131h-154.65417261zM799.21489163 825.86906294h154.65417131v-154.65417131h-154.65417131zM70.13093706 582.84107852h154.65417131v-154.65417261h-154.65417131zM313.15892148 582.84107852h154.65417261v-154.65417261h-154.65417261zM556.18690591 582.84107852h154.65417261v-154.65417261h-154.65417261zM799.21489163 582.84107852h154.65417131v-154.65417261h-154.65417131zM70.13093706 339.81309409000005h154.65417131v-154.65417261h-154.65417131zM313.15892148 339.81309409000005h154.65417261v-154.65417261h-154.65417261zM556.18690591 339.81309409000005h154.65417261v-154.65417261h-154.65417261zM799.21489163 339.81309409000005h154.65417131v-154.65417261h-154.65417131zM70.13093706 96.78510836999999h154.65417131v-154.65417131h-154.65417131zM313.15892148 96.78510836999999h154.65417261v-154.65417131h-154.65417261zM556.18690591 96.78510836999999h154.65417261v-154.65417131h-154.65417261zM799.21489163 96.78510836999999h154.65417131v-154.65417131h-154.65417131z"  horiz-adv-x="1024" />

    
    <glyph glyph-name="yuanquan" unicode="&#59060;" d="M512-55.99999968999998a439.99999969 439.99999969 0 1 0 439.99999969 439.99999969 439.99999969 439.99999969 0 0 0-439.99999969-439.99999969z m0 819.99999938a379.99999969 379.99999969 0 1 1 379.99999969-379.99999969A379.99999969 379.99999969 0 0 1 512 763.99999969z"  horiz-adv-x="1024" />

    
    <glyph glyph-name="zhihuizhongxin" unicode="&#58929;" d="M581.55994073 345.03984762000005v-70.54262858c121.06788571-19.17622857 208.256-70.01051429 208.256-130.30765714 0-76.64091429-139.86194286-138.79588571-312.37851429-138.79588571-172.51108571 0-312.36388571 62.15497143-312.36388571 138.79588571 0 60.29714286 87.17897143 111.13142857 208.23771429 130.30765714v70.54262858c-149.94102857-21.36137143-277.64845714-89.45371429-277.64845715-200.85028572 0-136.72045714 192.11154286-208.19748571 381.77462857-208.19748571 189.66125714 0 381.78011429 71.47702857 381.78011429 208.19748571 0 111.39657143-127.72205714 179.48891429-277.6576 200.85028572zM912.47468359 784.75459047c-9.87062857 6.04342857-22.25371429 6.47314286-32.55588572 1.14834286-26.30582857-13.63931429-52.17828571-24.89051429-102.11291428-24.89051429-54.91565714 0-53.38148571 13.63931429-83.38651429 29.43817143-33.02765714 17.36045714-35.66994286 37.05965714-107.0208 37.05965715-49.37508571 0-56.74788571-9.43542857-83.41211428-20.95908572-4.89325714 12.25508571-16.8192 20.95908571-30.848 20.95908572-18.35885714 0-33.25074286-14.848-33.25074286-33.25074286v-619.06285714c0-18.35337143 14.89371429-33.24342857 33.25074286-33.24342858 18.35885714 0 33.24708571 14.89005714 33.24708571 33.24342858V447.25699047c28.25325714 14.81508571 28.69211429 27.18902857 81.01668571 27.18902857 54.89737143 0 46.05805714-13.63931429 76.0448-29.39611428 33.00937143-17.40251429 42.98788571-37.09805714 114.35885715-37.09805714 64.78994286 0 101.06697143 15.96891429 132.67565714 32.29988571a33.25988571 33.25988571 0 0 1 17.96388571 29.56617143V756.3751619c0.00365714 11.58217143-6.06354286 22.34148571-15.97074285 28.37942857z m-50.52342857-294.16045714c-21.19314286-9.38971429-45.41622857-16.14262857-84.13805715-16.14262857-54.9248 0-53.38514286 13.63382857-83.392 29.44182857-33.02765714 17.35497143-35.66994286 37.05051429-107.0208 37.05051429-47.84091429 0-54.75657143-8.82651429-81.01302857-19.88388572V733.86361904c28.25325714 14.78765714 28.69211429 27.14331429 81.01302857 27.14331429 54.89737143 0 46.0672-13.63931429 76.0448-29.39611429 33.01851429-17.37874286 42.98788571-37.10171429 114.368-37.10171428 35.17074286 0 61.952 4.71588571 84.13805715 11.64617143v-215.56114286z m0 0"  horiz-adv-x="1024" />

    
    <glyph glyph-name="zijinjihua" unicode="&#59055;" d="M761.12406143 833.37603545H126.16963174C91.01817881 833.37603545 62.41670703 804.77456367 62.41670703 769.61433838v-747.69129492c0-35.15912842 28.60147178-63.75621445 63.75292471-63.75621445h482.07988125a242.87454932 242.87454932 0 0 0-51.23416026 53.89450751 239.60887998 239.60887998 0 0 0-42.86602002 136.98484278c0 132.91098047 108.12896016 241.03774776 241.03774688 241.03774687 5.31850078 0 10.58217188-0.23576836 15.82171788-0.57461748 18.61255987-1.21174102 36.65927461-4.52785342 53.89341063-9.74108056V769.61433838C824.89453174 804.77456367 796.28648047 833.37603545 761.12406143 833.37603545z m-5.94575421-389.39540889c-162.62440312 0-294.9322544-132.30675527-294.93225527-294.93335127a293.03294678 293.03294678 0 0 1 33.86623975-136.98484189H126.16963174c-5.44460977 0.00877237-9.85293369 4.42038692-9.85732031 9.86061006V769.61433838c0 5.44460977 4.42148379 9.86499668 9.85732031 9.86499668h634.96539579c5.44899638-0.00328974 9.85841719-4.41600029 9.87376993-9.86499668v-326.06577158c-5.2757332 0.2862123-10.55037041 0.42767315-15.83049024 0.43205976z m0 0M749.9650792-64.90449873c-116.1922456 0-210.71790615 94.52456367-210.71790615 210.73106602 0 116.1922456 94.52566055 210.71680928 210.71790615 210.71680927 116.20540459 0 210.73106513-94.52456367 210.73106601-210.71680927 0-116.20540459-94.52566055-210.73106513-210.73106601-210.73106602z m0 367.54788516c-86.46237422 0-156.81791602-70.35334805-156.81791602-156.81681914 0-86.48211357 70.3555418-156.83217188 156.81791602-156.83217188 86.48320957 0 156.83326875 70.34896231 156.83326875 156.83217188 0 86.46347109-70.34896231 156.81681914-156.83326875 156.81681914z m0 0M572.94453623 588.9717322199999H188.17457803a8.98333154 8.98333154 0 0 1-8.98333155-8.98333154v-28.44685195a8.98333154 8.98333154 0 0 1 8.98333154-8.98223467h384.76886221a8.9800418 8.9800418 0 0 1 8.9800418 8.98223467v28.44685195a8.97894492 8.97894492 0 0 1-8.9789458 8.98333155zM502.5725457 397.64935693H188.17457803a8.96359307 8.96359307 0 0 1-6.34820626-2.6340293 8.96468994 8.96468994 0 0 1-2.63512529-6.34820625v-28.45233456a8.98333154 8.98333154 0 0 1 8.98333154-8.98223467h314.39796768a8.98333154 8.98333154 0 0 1 8.98223555 8.98223467v28.45233456a8.97784893 8.97784893 0 0 1-2.62964268 6.34820625 8.9734623 8.9734623 0 0 1-6.35259287 2.6340293zM414.99054511 225.91661016H188.17457803a8.98333154 8.98333154 0 0 1-8.98333155-8.98333243v-28.45123769a8.98333154 8.98333154 0 0 1 8.98333154-8.98113867h226.81596709a8.98333154 8.98333154 0 0 1 8.98223468 8.98113867V216.93327773a8.98333154 8.98333154 0 0 1-8.98223468 8.98333243zM702.57778526 97.17160576000003h32.85188612v21.00862617H702.57778526c-13.80068701 0-20.64565283 4.52785342-20.64565284 13.61865235 0 8.98333154 6.84606182 13.4366168 20.64565284 13.43661591h18.61804247l-43.57222909 68.3125796c-3.51350068 5.43145078-5.75933291 9.34411289-6.91953399 11.66341728-1.04944482 2.3182084-1.59335684 4.88973076-1.59335684 7.71456796 0 5.07176631 1.52098154 9.12698614 4.6364168 12.1711421 3.04196309 3.04196309 6.99081328 4.59913271 11.77198067 4.59913271 5.03448222 0 8.98333154-1.52098154 12.02529462-4.52785341 3.15271933-3.005775 6.66512315-7.89660263 10.75872393-14.52444258l47.08572979-73.78131358 42.05234443 69.54405908c1.62844805 2.67898886 3.25908984 5.54220703 4.96210606 8.51289083 1.77319951 2.93449658 3.47511973 5.46873487 5.06847656 7.5687205 1.70411308 2.10108164 3.76900752 3.76791152 6.23306425 5.18032881 2.45966924 1.37623096 5.43145078 2.02870635 8.83529034 2.02870723 4.81845234 0 8.76730166-1.48479346 11.88164091-4.45547813 3.04196309-2.93449658 4.59913271-6.59165098 4.59913271-10.86509443 0-3.36874922-0.65247627-6.48418448-1.84776855-9.34411202-1.2665707-2.78974599-3.11433838-6.33833701-5.79552099-10.57668925l-41.94158731-69.21836895h18.54347344c13.65483955 0 20.49980537-4.45328526 20.49980537-13.4366168 0-9.09079805-6.84496583-13.61865234-20.49980537-13.61865234h-32.92316455v-21.00862617h32.92316455c13.65483955 0 20.49980537-4.59913271 20.49980537-13.72721485 0-8.90985937-6.84496583-13.40262246-20.49980537-13.40262245h-32.92316455v-11.58994512c0-19.77605068-6.59274786-29.6278875-19.66858418-29.6278875-13.29296221 0-19.95698935 9.85074082-19.95698848 29.6278875V70.04396133H702.57778526c-13.80068701 0-20.64565283 4.49166621-20.64565284 13.40262246-0.00109687 9.12588926 6.84496583 13.72502198 20.64565284 13.72502197z"  horiz-adv-x="1024" />

    
    <glyph glyph-name="ic_mode_block" unicode="&#58893;" d="M65.4875 433.6125h396.9V830.5125H65.4875v-396.9z m496.125 396.9v-396.9h396.9V830.5125H561.6125z m-496.125-893.025h396.9V334.38750000000005H65.4875v-396.9z m496.125 0h396.9V334.38750000000005H561.6125v-396.9z"  horiz-adv-x="1024" />

    
    <glyph glyph-name="ren" unicode="&#58912;" d="M727.69785529 341.4392556c-55.32896891-48.94485666-127.17150623-81.54638819-210.1649581-81.5463882-82.99345336 0-154.92111234 32.60153005-215.69785678 81.63150838-138.32242076-70.7359588-232.38166852-163.26301821-232.38166703-331.97381047h885.0081316c0 168.71079374-93.97412458 255.79007763-226.76364969 331.97381047zM512 325.26617231c138.32242076 0 248.89523692 114.2330399 248.89523692 250.25718044 0 136.02414054-110.65793782 250.25718045-248.89523692 250.25718044-138.32242076 0-248.89523692-114.2330399-248.89523692-250.25718044A250.5125454 250.5125454 0 0 1 512 325.26617231z"  horiz-adv-x="1024" />

    
    <glyph glyph-name="rili" unicode="&#59211;" d="M797.6 753.6H680v33.6c0 18.48-15.12 33.6-33.6 33.6s-33.6-15.12-33.6-33.6v-33.6H411.2v33.6c0 18.48-15.12 33.6-33.6 33.6s-33.6-15.12-33.6-33.6v-33.6H226.4c-92.4 0-168-75.6-168-168v-470.4c0-92.4 75.6-168 168-168h571.2c92.4 0 168 75.6 168 168V585.6c0 92.4-75.6 168-168 168z m-571.2-67.2h117.6v-33.6c0-18.48 15.12-33.6 33.6-33.6s33.6 15.12 33.6 33.6v33.6h201.6v-33.6c0-18.48 15.12-33.6 33.6-33.6s33.6 15.12 33.6 33.6v33.6h117.6c55.44 0 100.8-45.36 100.8-100.8v-33.6H125.6v33.6c0 55.44 45.36 100.8 100.8 100.8z m571.2-672H226.4c-55.44 0-100.8 45.36-100.8 100.8V484.8h772.8v-369.6c0-55.44-45.36-100.8-100.8-100.8zM276.8 216h67.2c18.48 0 33.6-15.12 33.6-33.6s-15.12-33.6-33.6-33.6h-67.2c-18.48 0-33.6 15.12-33.6 33.6s15.12 33.6 33.6 33.6z m201.6 0h67.2c18.48 0 33.6-15.12 33.6-33.6s-15.12-33.6-33.6-33.6h-67.2c-18.48 0-33.6 15.12-33.6 33.6s15.12 33.6 33.6 33.6z m201.6 0h67.2c18.48 0 33.6-15.12 33.6-33.6s-15.12-33.6-33.6-33.6h-67.2c-18.48 0-33.6 15.12-33.6 33.6s15.12 33.6 33.6 33.6zM276.8 384h67.2c18.48 0 33.6-15.12 33.6-33.6s-15.12-33.6-33.6-33.6h-67.2c-18.48 0-33.6 15.12-33.6 33.6s15.12 33.6 33.6 33.6z m201.6 0h67.2c18.48 0 33.6-15.12 33.6-33.6s-15.12-33.6-33.6-33.6h-67.2c-18.48 0-33.6 15.12-33.6 33.6s15.12 33.6 33.6 33.6z m201.6 0h67.2c18.48 0 33.6-15.12 33.6-33.6s-15.12-33.6-33.6-33.6h-67.2c-18.48 0-33.6 15.12-33.6 33.6s15.12 33.6 33.6 33.6z"  horiz-adv-x="1024" />

    
    <glyph glyph-name="zanting" unicode="&#59243;" d="M430.4 555.392c-18.24 0-33.088-12.736-33.088-28.544v-285.696c0-15.744 14.784-28.544 33.088-28.544 18.24 0 33.024 12.8 33.024 28.544V526.848c0 15.808-14.848 28.544-33.024 28.544z m164.224 0c-18.24 0-33.024-12.736-33.024-28.544v-285.696c0-15.744 14.72-28.544 33.024-28.544s33.088 12.8 33.088 28.544V526.848c0 15.808-14.848 28.544-33.088 28.544zM512.512 830.016C266.56 830.016 66.496 629.952 66.496 384S266.56-62.016 512.512-62.016 958.528 138.048 958.528 384 758.464 830.016 512.512 830.016z m0-828.032c-210.624 0-382.016 171.392-382.016 382.016s171.392 382.016 382.016 382.016S894.528 594.624 894.528 384 723.136 1.984 512.512 1.984z"  horiz-adv-x="1024" />

    
    <glyph glyph-name="xiala" unicode="&#58980;" d="M919.8 514.9L555.2 116.2a57.377 57.377 0 0 0-43.1-19.5c-16.5 0-32.2 7.1-43.1 19.5L104.4 514.9c-17.8 18.8-23.3 46.2-14.1 70.4s31.4 41.1 57.2 43.4h728.9c25.9-2.2 48.2-19 57.4-43.3 9.3-24.3 3.8-51.6-14-70.5z"  horiz-adv-x="1024" />

    
    <glyph glyph-name="yonghu" unicode="&#58890;" d="M245.56132812 568.05703125a265.94296875 265.94296875 0 1 1 531.88593751 0 265.94296875 265.94296875 0 1 1-531.8859375 0zM768.43232422 303.61523437000005c-21.03486328 16.52871094-51.08466797 15.02578125-70.61748047-4.50703124-48.08056641-48.0796875-114.19013672-78.12949219-187.81347656-78.12949219s-139.73291016 30.04980469-187.81347657 78.12949219c-19.53193359 19.5328125-49.58173828 22.53779297-70.61660156 4.50791015-81.13535156-69.11542969-141.23583984-157.76367188-160.76777344-279.46582031C83.290625-25.432324220000055 117.84746094-66 168.93300781-66h686.64550781c49.58173828 0 85.64150391 40.56767578 78.12949219 90.15029297-21.03486328 121.70214844-81.13535156 210.35039062-165.27568359 279.46582031z"  horiz-adv-x="1024" />

    
    <glyph glyph-name="dot" unicode="&#58938;" d="M512.00259297 577.1675255600001C618.67255241 577.1675255600001 705.16752556 490.68681322 705.16752556 384.00259297 705.16752556 277.31707604999997 618.67255241 190.83247444000006 512.00259297 190.83247444000006S318.83247444 277.32874389999995 318.83247444 384.00259297 405.31837237 577.1675255600001 512.00259297 577.1675255600001z"  horiz-adv-x="1024" />

    
    <glyph glyph-name="xitongbeifenguanli" unicode="&#58908;" d="M957.29345703 222.82089843999995L865.15068359 807.94042969c-1.76484375 11.22099609-11.43808594 19.48798828-22.80058593 19.48798828h-655.50585938c-11.25351563 0-20.86699219-8.1140625-22.75839844-19.21376953L64.07949219 219.64804688000004a23.02734375 23.02734375 0 0 1-0.23291016-5.27343751c-0.00439453-0.31113281-0.08876953-0.60205078-0.08876953-0.90351562v-249.27451172a23.05898438 23.05898438 0 0 1 6.76230469-16.31865234 23.04931641 23.04931641 0 0 1 16.31777343-6.76142578h849.38642579a23.05986328 23.05986328 0 0 1 16.31865234 6.76142578 23.08007813 23.08007813 0 0 1 6.76230469 16.31865234V213.47109375000002c0.00175781 3.33369141-0.73828125 6.48193359-2.01181641 9.34980469zM206.32607422 781.26650391h616.29169922l85.77773437-544.71357422H658.87050781c-11.05136719 0-20.55058594-7.83984375-22.65292968-18.68730469-8.88486328-45.84814453-59.43164063-96.93369141-117.759375-96.93369141-58.33300781 0-108.87978516 51.08554687-117.759375 96.93369141-2.10761719 10.85273438-11.61123047 18.69257812-22.66875 18.68730469H113.78076172L206.32607422 781.26650391z m706.81904297-793.99160157H109.91884766V190.39189452999995h250.50234375c20.29746094-58.66611328 81.50888672-115.62099609 158.03701171-115.62099609s137.72900391 56.96455078 158.0203125 115.62099609h236.66660157v-203.11699219z m0 0M439.81103516 331.58994141000005a23.07304687 23.07304687 0 0 1 25.16308593-5.02382813 23.05634766 23.05634766 0 0 1 14.23125 21.34775391V440.22099609c77.80605469 9.61171875 133.68779297-2.59804688 164.95839844-35.78027343 28.83339844-30.60351562 32.65664063-74.32910156 30.79335938-105.60761719a23.08095703 23.08095703 0 0 1 13.94121093-22.57998047 23.09326172 23.09326172 0 0 1 25.97080078 5.46240234c30.39169922 32.57402344 70.22988281 105.4828125 65.97246094 157.63007813-6.97851563 85.41914062-46.21464844 198.35507813-301.63974609 203.2883789V731.88251953a23.08710937 23.08710937 0 0 1-14.24882813 21.31523438 23.07919922 23.07919922 0 0 1-25.1446289-4.9913086L247.84384766 556.2067382800001a23.05898438 23.05898438 0 0 1 0-32.63642578l191.9671875-191.98037109z m-6.75615235 344.54882812v-56.44335937c0-12.74677734 10.33417969-23.08095703 23.08183594-23.08095704h5.55732422c182.24736328 0 263.93642578-48.16318359 273.14384766-161.04726562 1.53193359-18.70576172-6.91523437-45.55458984-19.38867188-70.69394531-6.08554688 24.75439453-17.51748047 49.81201172-37.67695312 71.21162109-33.42919922 35.47880859-83.94433594 53.47353516-150.12246094 53.47353516-19.96962891 0-41.68300781-1.01425781-65.38095703-4.41650391-1.01953125 0.02109375-2.56728516 0.67587891-5.01328125 0.67587891h-1.17333985c-12.73007812 0-23.03789062-11.64199219-23.03789062-24.37382813v-57.82060547L296.81035156 539.8828125l136.24453125 136.25595703z m0 0"  horiz-adv-x="1024" />

    
    <glyph glyph-name="shujuzidian" unicode="&#58951;" d="M841.923125 764.6596582v-622.49152588h-659.88500977V764.6596582h659.88500977m0 69.76757813h-659.88500977a69.76757813 69.76757813 0 0 1-69.76757812-69.76757813v-622.49152588a69.76757813 69.76757813 0 0 1 69.76757812-69.76757812h659.88500977a69.76757813 69.76757813 0 0 1 69.76757813 69.76757812V764.6596582a69.76757813 69.76757813 0 0 1-69.76757813 69.76757813zM353.20124023 675.40560791h90.69785157q91.84126465 0 133.7211914-13.66281738t72.38386231-42.44194336q30.52331543-28.77912598 46.80241699-70.05827637t16.27910156-95.34902344a224.11865479 224.11865479 0 0 0-24.1279541-102.035083q-24.14733398-47.96520996-68.60478516-75.00014649t-129.94211425-27.03493652h-137.20957032z m48.25590821-377.90771484h44.18613281q73.82766357 0 107.55834961 7.55815429t58.72104492 29.06982422a140.05841309 140.05841309 0 0 1 38.08146973 52.61638184q13.0814209 31.10471191 13.0814209 71.80246582T647.65917969 533.83556396q-15.41669678 34.59309082-43.89543457 56.39545899t-66.86059571 29.06982422q-38.37216797 7.26745605-109.88393554 7.26745605h-25.58144532zM841.923125 3.446931149999955v-0.10658935h-659.88500977V148.53442383000004h-69.76757812v-145.19408203a69.76757813 69.76757813 0 0 1 69.76757812-69.76757813h659.88500977a69.76757813 69.76757813 0 0 1 69.76757813 69.76757813v0.10658935z"  horiz-adv-x="1024" />

    
    <glyph glyph-name="tuichu" unicode="&#58927;" d="M512-55.99999968999998A439.99999969 439.99999969 0 0 0 291.99999969 765.07999969a40.00000031 40.00000031 0 0 0 40.00000031-69.24 360 360 0 1 1 360 0 40.00000031 40.00000031 0 0 0 40.00000031 69.24A439.99999969 439.99999969 0 0 0 512-55.99999968999998z m0 559.99999969a40.00000031 40.00000031 0 0 0-40.00000031 40.00000031V784.00000031a40.00000031 40.00000031 0 0 0 80.00000062 0v-240a40.00000031 40.00000031 0 0 0-40.00000031-40.00000031z"  horiz-adv-x="1024" />

    
    <glyph glyph-name="bianji" unicode="&#58924;" d="M334.49634649 162.08737686999996l-104.38659593 116.87377233-40.97032017-152.42610249c-1.70279637-8.77198276-4.07639184-6.8627864 2.42519546-5.15999002l142.93172064 40.76392018z m-79.618644 166.66767437l128.99974785-144.58291701 431.06555827 444.48153198c10.83597913 11.19717823 10.83597913 22.91035556 0 34.05593288l-102.37420045 105.52179411c-10.47477913 10.83597913-20.53676009 10.83597913-30.95993923 0l-426.73116644-439.47634196z m-49.53590385-257.12229751c-46.1303102-10.42318005-75.59385216 19.6079619-66.40907029 66.51227031l53.87029479 200.72360815 4.64399092 4.85039003L644.61174059 804.19652335c30.75354013 31.57913833 74.30385487 31.57913833 105.00579501 0l102.42580045-105.5733941c30.28914104-31.16633923 30.28914104-74.66505397 1e-8-105.9345932l-451.39591838-465.43109116-195.25401905-55.67629115zM130.93474468-55.19979864000004a31.73393832 31.73393832 0 0 0 0 63.46787665h762.13051064a31.73393832 31.73393832 0 0 0 0-63.46787666H130.93474468z"  horiz-adv-x="1024" />

    
    <glyph glyph-name="rizhiguanli" unicode="&#59021;" d="M868.4 820.7l72.2-60.6c20.6-17.3 23.3-48.3 6-68.9l-399.4-476c-4.1-4.8-11.2-5.7-16.3-2-0.4 0.3-1 0.3-1.5 0.1l-129.6-61.7c-19.8-9.4-41.6 8.7-35.9 29.9l37.4 139.4c0.1 0.5 0 1.1-0.4 1.4-4.5 4.3-4.9 11.5-0.9 16.4l399.4 476c17.4 20.5 48.4 23.3 69 6z m-441-550.8c-1.2-1.5-1.1-3.6 0.1-5 0.3-0.4 0.4-0.8 0.3-1.3l-15.2-59.1c-0.3-1.2 0.9-2.2 2-1.7l55.2 25.6c0.4 0.2 0.9 0.2 1.3-0.1 1.6-0.9 3.7-0.6 5 0.8 0.5 0.6 0.4 1.5-0.2 2.1l-46.4 38.9c-0.7 0.5-1.6 0.4-2.1-0.2z m43.1 49.2l46.4-38.9c0.6-0.5 1.5-0.4 2.1 0.2l244.9 291.8c0.5 0.6 0.4 1.5-0.2 2.1l-46.4 38.9c-0.6 0.5-1.5 0.4-2.1-0.2L470.3 321.1c-0.5-0.6-0.4-1.5 0.2-2z m287.9 343.1l46.4-38.9c0.6-0.5 1.5-0.4 2.1 0.2l66.1 78.8c8.4 10 7.1 25-2.9 33.4L857.8 746c-10 8.4-25 7.1-33.4-2.9l-66.1-78.8c-0.6-0.7-0.5-1.6 0.1-2.1zM224 576H95.4c-17.7 0-32 14.3-32 32s14.3 32 32 32H224c17.7 0 32-14.3 32-32s-14.3-32-32-32zM224 448H95.4c-17.7 0-32 14.3-32 32s14.3 32 32 32H224c17.7 0 32-14.3 32-32s-14.3-32-32-32zM224 319.9H95.4c-17.7 0-32 14.3-32 32s14.3 32 32 32H224c17.7 0 32-14.3 32-32s-14.3-32-32-32zM224 192H95.4c-17.7 0-32 14.3-32 32s14.3 32 32 32H224c17.7 0 32-14.3 32-32 0-17.6-14.3-32-32-32zM192.2 640v86.1c0 23 18.8 41.9 41.9 41.9h372.3c17.9 0 32.3 14.5 32.3 32.3 0 17.9-14.5 32.3-32.3 32.3h-401c-42 0-76.4-34.4-76.4-76.4V640h63.2zM831 351.9v-309.6c0-23-18.8-41.9-41.9-41.9H234c-23 0-41.9 18.8-41.9 41.9V201H129v-188.9c0-42 34.4-76.4 76.4-76.4h615.2c42 0 76.4 34.4 76.4 76.4V351.9c0 18.2-14.8 33-33 33-18.2-0.1-33-14.8-33-33z"  horiz-adv-x="1024" />

    
    <glyph glyph-name="chongdianzhuang1" unicode="&#58916;" d="M933.67792812 721.725225L834.24099131 820.48648682a46.03040508 46.03040508 0 0 1-65.09009004-65.09009004l64.47072041-64.63964004-47.57882871-49.66216172a41.34290537 41.34290537 0 0 1 0-57.54504551 37.86599092 37.86599092 0 0 1 28.26576562-12.10585605l53.82882862 0.1126125v-421.90315313a28.15315312 28.15315312 0 0 0-56.30630625 0V412.15315312a121.86092373 121.86092373 0 0 1-121.79054004 121.84684717h-28.15315313V759.00000029A74.97184658 74.97184658 0 0 1 586.88738721 834H193.24999971a74.97184658 74.97184658 0 0 1-74.99999971-74.99999971V27.69369403999997h-9.34684717a46.84684658 46.84684658 0 0 1 0-93.69369404h562.5a46.84684658 46.84684658 0 0 1 0 93.69369404h-9.51576504v412.44369346h28.15315313a28.15315312 28.15315312 0 0 0 28.15315312-28.15315312v-262.3873878a121.84684717 121.84684717 0 1 1 243.69369346 0V654.3828832a94.31306279 94.31306279 0 0 1-28.20945937 67.3423418zM502.00563096 240.64414423999995l-140.09009063-198.47972989a7.03828828 7.03828828 0 0 0-5.10979746-2.18186894 2.98423388 2.98423388 0 0 0-2.18186894 0.73198125c-3.40653164 0.98536026-4.6171169 2.91385107-3.6458332 5.82770303l22.62105878 133.57263515h-98.53603681a5.23648652 5.23648652 0 0 0-5.10979658 2.92792764q-2.16779239 2.88569795 0.73198125 6.55968515l151.75957235 198.47972989c1.95664395 2.91385107 4.13851377 3.39245508 6.57376172 1.40765712 2.43524795-0.49268057 3.6458332-2.44932451 3.6458332-5.8417787l-22.62105878-133.53040547h86.82432451a5.25056309 5.25056309 0 0 0 5.10979746-2.91385195 14.69594619 14.69594619 0 0 0 0.02815313-6.55968428z m66.15990966 259.51576553a41.08952724 41.08952724 0 0 0-41.2162163-41.21621631h-273.78941485a41.08952724 41.08952724 0 0 0-41.21621543 41.27252256V698.97747714a41.08952724 41.08952724 0 0 0 41.21621544 41.21621632h273.76126171a41.08952724 41.08952724 0 0 0 41.21621631-41.21621631z"  horiz-adv-x="1024" />

    
    <glyph glyph-name="jian1" unicode="&#58990;" d="M71.46666667 824.64v-884.26666667h884.26666666v884.26666667H71.46666667z m840-840.10666667H115.62666667V780.48h795.84v-795.94666667z m0 0M734.61333333 360.42666667000003H292.48c-13.22666667 0-22.08 8.85333333-22.08 22.08 0 13.22666667 8.85333333 22.08 22.08 22.08h442.13333333c13.22666667 0 22.08-8.85333333 22.08-22.08 0.10666667-11.09333333-10.98666667-22.08-22.08-22.08z m0 0"  horiz-adv-x="1024" />

    
    <glyph glyph-name="jia1" unicode="&#58991;" d="M952.64-60.48000000000002L68.58666667-60.48000000000002 68.58666668 825.38666667l884.05333332 0 0-885.86666667zM115.2-13.866666669999972l790.72 0L905.92 778.77333333 115.2 778.77333333 115.2-13.866666669999972z m0 0M778.24 360L242.02666667 360c-13.01333333 0-23.25333333 10.24-23.25333334 23.36 0 13.01333333 10.24 23.36 23.25333334 23.36l536.21333332 0c13.01333333 0 23.36-10.24 23.36000001-23.36-0.10666667-13.01333333-10.34666667-23.36-23.36-23.36z m0 0M510.61333333 101.75999999999999c-13.01333333 0-23.36 10.24-23.36 23.36L487.25333333 640.74666667c0 13.01333333 10.24 23.36 23.35999999 23.36 13.01333333 0 23.36-10.24 23.36000001-23.36l0-515.62666667c-0.10666667-12.16-10.34666667-23.36-23.36-23.36z m0 0"  horiz-adv-x="1024" />

    
    <glyph glyph-name="yanzhengma" unicode="&#58952;" d="M835.53882705 728.08660982c-160.8605966 0-265.37454354 65.43481897-305.36248845 95.42577765-10.90580315 8.17935237-25.44687404 8.17935237-35.44386027 0-39.07912797-30.89977561-143.59307493-95.42577765-305.36248846-95.42577765-3.63526771 0-13.63225395 0-23.62924018 0.90881693-16.35870474 0.90881692-30.89977561-12.72343702-30.89977561-29.08214174v-372.61494128c0-105.42276388 38.17031106-259.92164195 367.16203969-378.06784285 0 0 8.17935237-2.72645079 9.99698623-2.72645079 2.72645079 0 9.99698623 2.72645079 9.99698623 2.72645079 328.99172863 118.14620089 367.16203969 271.73626204 367.16203969 378.06784285v372.61494128c0 16.35870474-13.63225395 29.99095869-30.89977561 29.08214174-9.99698623-0.90881692-19.99397246-0.90881692-22.72042326-0.90881693zM479.28259053 221.87557985L319.33081086 360.92457013c-15.44988781 13.63225395-14.54107088 38.17031106 0.90881692 50.89374808 11.81462009 9.0881693 28.17332483 9.99698623 39.98794492 0.90881693l58.16428351-41.80557877c12.72343702-9.0881693 30.89977561-8.17935237 41.80557878 2.72645078 42.71439571 40.89676184 149.95479344 138.14017336 253.55992346 189.03392143l19.08515552-20.90278939c0.90881692-0.90881692-167.22231509-138.14017336-253.55992344-319.90355934z"  horiz-adv-x="1024" />

    
    <glyph glyph-name="youla1" unicode="&#58913;" d="M374.76720136 811.52891737L792.75587069 429.28996868a60.15283643 60.15283643 0 0 0 20.44338865-45.18513079c0-17.29825193-7.44349023-33.75780073-20.44338865-45.1851308L374.76720136-43.31924158000004c-19.70952341-18.66114451-48.4351054-24.42722848-73.8058749-14.78214256s-43.08837299 32.9190976-45.49964446 59.96727336l0 764.16338369c2.30643359 27.15301365 19.91919919 50.53186321 45.39480656 60.17694913 25.47560738 9.74992381 54.09635149 3.98383983 73.9107128-14.67730467z"  horiz-adv-x="1024" />

    
    <glyph glyph-name="wuyeguanli" unicode="&#58985;" d="M503 493.14000029l99.20999971-99.18 19.83000058 19.82999971-99.18 99.18a182.36999971 182.36999971 0 0 0 296.75999971-177.72000029l139.29000029-139.28999942-138.87-138.87-139.29000029 139.28999942a182.36999971 182.36999971 0 0 0-177.72000029 296.76000058z m14.69999971-94.02000029a126.29999971 126.29999971 0 0 1 178.26000029-138.6l124.08000029-124.08000029 59.51999971 59.52000058-124.11 124.11a126.29999971 126.29999971 0 0 1-138.6 178.25999942l84.53999971-84.53999971-99.18-99.18-84.53999971 84.51zM187.28 416.4h-93.6c-24.95999971 0-36.54 31.02000029-17.66999971 47.40000029L494.11999971 826.26a27 27 0 0 0 35.40000058 0L947.6 463.76999971a27 27 0 0 0-35.39999971-40.79999971L511.84999971 770.1 166.10000029 470.4h48.20999942a27 27 0 0 0 27-27v-423.9h602.94000058a27 27 0 0 0 0-54H214.30999971a27 27 0 0 0-27 27V416.4z"  horiz-adv-x="1024" />

    
    <glyph glyph-name="xiaoxi" unicode="&#58917;" d="M817.87121035 51.385630669999955H206.12878965c-30.98569219 0-56.12138877 24.23569658-56.12138789 54.06424716v59.46424277c0 14.46427529 5.39999648 28.28569394 14.52856113 37.92854443l70.45709239 94.11421817V472.71390088c0 80.22851455 27.19283731 154.67131846 76.56423047 209.44270722 23.20712666 25.77855322 50.33567813 45.96425332 80.6142287 60.62138526a35.87140283 35.87140283 0 0 1 18.57855762 19.92855762A107.4856377 107.4856377 0 0 0 511.93571416 833.99935752H512c46.67139492 0 86.33565263-29.82854971 101.18564209-71.35709239 3.2142832-8.99999385 10.09284961-15.81427442 18.5785585-19.92855673 30.27854971-14.65713281 57.40710205-34.84283203 80.61422783-60.62138525 49.37139316-54.77138964 76.56423135-129.21419356 76.56423135-209.44270811v-175.75701679l70.45709237-94.04993321a55.79996045 55.79996045 0 0 0 14.52856114-37.99283027v-59.46424277c0-29.82854971-25.07141075-53.99996133-56.12138877-53.99996133z m-0.64285664 113.52848993L746.70697549 258.89976796999997a55.47853213 55.47853213 0 0 0-14.52856114 38.05711523V472.71390088c0 65.89281006-21.85712753 126.51419531-61.71424189 170.87130615a207.25699482 207.25699482 0 0 1-78.42851543 54.64281885c-15.87856026 6.10713808-28.86426474 19.47855762-31.75712051 36.32140195a48.8571082 48.8571082 0 0 1-37.09283027 39.53568604C522.73570625 774.21368555 522.28570713 774.21368555 521.77142129 774.27797138v-0.12857167A52.32853388 52.32853388 0 0 1 512 775.1779705a52.32853388 52.32853388 0 0 1-9.77142129-1.02857079V774.27797138c-0.51428497-0.12857168-0.96428496-0.06428584-1.41428496-0.19285752a48.8571082 48.8571082 0 0 1-37.09283028-39.53568603c-2.89285488-16.84284521-15.87856026-30.21426387-31.82140634-36.3856878-3.14999737-1.22142744-6.23570977-2.57142656-9.32142217-3.85713984a207.25699482 207.25699482 0 0 1-69.04280743-50.78567812c-39.85711435-44.29282588-61.7142419-104.91421113-61.71424188-170.80702119v-175.75701768a55.47853213 55.47853213 0 0 0-14.52856114-38.05711523l-70.52137823-93.98564737-0.57857079-58.88567197L512 105.77130614999999l305.80692451 0.25714248-0.5785708 58.88567197z m-355.62831767-157.94988662c11.76427705-10.28570713 26.80712403-16.0714169 42.29997011-17.48570185 2.69999824-0.25714248 5.39999648-0.19285664 8.09999385-0.19285752 2.69999824 0 5.39999648-0.06428584 8.09999385 0.19285752 15.49284609 1.4785708 30.53569219 7.13570888 42.29997011 17.48570185 8.03570888 7.07142393 14.01427529 15.55713193 18.19284434 24.94283907l58.49995782-0.06428584a125.35705371 125.35705371 0 0 0-39.0214002-64.79995342 131.78562011 131.78562011 0 0 0-78.29994464-32.14283467c-3.2142832-0.25714248-6.42856641-0.89999912-9.77142128-0.89999912-3.34285488 0-6.49285224 0.64285664-9.77142129 0.83571328a131.78562011 131.78562011 0 0 0-78.29994463 32.14283467 125.42133867 125.42133867 0 0 0-39.08568603 64.86423926h58.49995781c4.24285401-9.32142217 10.28570713-17.80713018 18.25713018-24.87855323z"  horiz-adv-x="1024" />

    
    <glyph glyph-name="dashuju" unicode="&#58886;" d="M533.33483072 599.08066406a61.65175781 61.65175781 0 1 1 123.30351563 0 61.65175781 61.65175781 0 1 1-123.30351563 0zM981.54274088 205.25859375000005q-4.96582031 0-9.8428711-0.36386719L790.79635416 418.48476562l128.22451172 159.63398438a135.64511719 135.64511719 0 1 1-43.43115235 35.87958984L753.71705729 462.22441406l-136.92128907 161.6484375q-0.56162109 0.67236328-1.15576172 1.31044922l-0.17578125 0.18720703c-0.25400391 0.26367188-0.50712891 0.52822266-0.77167968 0.78222657l-0.76992188 0.71542968-0.23115234 0.20917969a28.02919922 28.02919922 0 0 1-16.16220703 6.90205078h-0.12041016l-1.00195312 0.0553711h-3.346875a28.02919922 28.02919922 0 0 1-17.20722657-7.53046875l-0.26455078-0.253125c-0.24257812-0.23115234-0.47373047-0.46230469-0.70488281-0.69345704s-0.52822266-0.56162109-0.79277344-0.8586914l-0.13183594-0.14326172q-0.58359375-0.66005859-1.10126953-1.36494141L443.52115885 460.13261719 313.61266275 612.76523438a135.20478516 135.20478516 0 1 1-43.8609375-35.37333985L407.84020182 415.18359375l-169.13408203-213.29296875a135.65566406 135.65566406 0 1 1 52.3265625-24.67177734l154.01953125 194.203125 70.30371093-82.56972657-0.31816406-0.30761718 6.60498047-7.93828125h161.28544922c-0.49570313 0.56162109-1.00195313 1.10126953-1.50820313 1.66201171l73.44228516 91.46513672 158.42285156-186.99169922a135.31464844 135.31464844 0 1 1 68.25761719 18.51767579z m0 571.93945313a79.04619141 79.04619141 0 1 0-79.04619141-79.0453125 79.13408203 79.13408203 0 0 0 79.04619141 79.0461914z m-772.84863281-158.08007813a79.04619141 79.04619141 0 1 0 79.04707031 79.0453125 79.13408203 79.13408203 0 0 0-79.04619141-79.04619141z m0-628.27558594a79.03564453 79.03564453 0 1 0 79.04707031 79.04619141 79.13408203 79.13408203 0 0 0-79.04619141-79.03476563zM634.11373697 313.29199219a118.05205078 118.05205078 0 0 1-68.15742187 3.00585937l-85.22314453 100.10654297 115.06904296 145.08984375 121.98164063-144zM981.54361979-9.146191410000029a79.03564453 79.03564453 0 1 0 79.0461914 79.04619141 79.13408203 79.13408203 0 0 0-79.04619141-79.04619141zM595.28365885 319.98574219a117.79892578 117.79892578 0 1 1 117.79892578-117.79980469 117.79892578 117.79892578 0 0 1-117.79892578 117.79980469z m0-179.4506836a61.65175781 61.65175781 0 1 0 61.65175781 61.65175782 61.65175781 61.65175781 0 0 0-61.65175781-61.65175782z"  horiz-adv-x="1190" />

    
    <glyph glyph-name="shanchu" unicode="&#58891;" d="M764.42168889 65.48479999999995c0-30.23530667-24.61013333-54.84430222-54.84316444-54.84430222H314.42147555c-30.23416889 0-54.84316445 24.61013333-54.84316444 54.84430222V647.67203555h504.84337778v-582.18723555zM369.26577778 746.10915555c0 6.32832 4.92202667 11.25034667 11.25034667 11.25034667H644.18702222c6.32832 0 11.25034667-4.92202667 11.25034667-11.25034667v-33.04675555H369.26577778V746.10915555z m559.68768-33.04675555H720.82773333V746.10915555c0 42.1888-34.45191111 76.64071111-76.64071111 76.64071112H380.51612445c-42.1888 0-76.64071111-34.45191111-76.64071112-76.64071112v-33.04675555h-208.82773333c-18.28181333 0-33.04789333-14.76608-33.04789333-33.04675555s14.76608-33.04675555 33.04675555-33.04675556h98.43825778v-581.48408889c0-66.79779555 54.14001778-120.93781333 120.93667555-120.93781333h395.1570489c66.79665778 0 120.93667555 54.14001778 120.93667555 120.93781333V647.67203555h98.43825778c18.28067555 0 33.04675555 14.76494222 33.04675555 33.04675556s-14.76608 32.34360889-33.04675555 32.34360889zM512 109.78076444999999c18.28181333 0 33.04675555 14.76608 33.04675555 33.04789333v351.56195555c0 18.28181333-14.76494222 33.04675555-33.04675555 33.04675556s-33.04675555-14.76494222-33.04675555-33.04675556v-351.56195555c0-18.28181333 14.76494222-33.04789333 33.04675555-33.04789333m-153.98456889 0c18.28181333 0 33.04675555 14.76608 33.04675556 33.04789333v351.56195555c0 18.28181333-14.76494222 33.04675555-33.04675556 33.04675556s-33.04675555-14.76494222-33.04675556-33.04675556v-351.56195555c0.70314667-18.28181333 15.46922667-33.04789333 33.04675556-33.04789333m307.96913778 0c18.28067555 0 33.04675555 14.76608 33.04675556 33.04789333v351.56195555c0 18.28181333-14.76608 33.04675555-33.04675556 33.04675556s-33.04675555-14.76494222-33.04675556-33.04675556v-351.56195555c0-18.28181333 14.76494222-33.04789333 33.04675556-33.04789333"  horiz-adv-x="1024" />

    
    <glyph glyph-name="tonghangquanxianpeizhi" unicode="&#58892;" d="M1001.07581983 778.93009605L609.97125703 921.6 218.86669423 778.93009605C191.86292758 775.4796144 171.76012318 752.5264128 171.76012318 725.37262425v-517.12214295c0-33.4546674 71.25994155-121.9670151 137.8692336-183.47559615 86.7120975-80.1111759 286.68999555-172.6740897 295.09116735-176.72465475 1.6502304-0.75010425 3.3004608-1.20016785 5.10071205-1.6502304 1.6502304 0.45006255 3.45048165 0.9001251 5.10071205 1.6502304 8.55119265 3.9005442 208.52909175 96.463458 295.09116735 176.72465475 66.6092931 61.50858105 137.8692336 150.02092875 137.8692336 183.47559615V725.2226034c0.3000417 27.15378855-19.95278355 50.10699015-46.80652935 53.70749265zM983.37335008 212.4510672c-6.90096225-15.0020934-44.106153-72.91017195-117.1663458-140.26956825-61.3585602-56.70791175-193.52699835-124.21732995-250.8349935-152.12122275l-5.5507746-2.40033465-5.5507746 2.40033465c-57.30799515 27.9038928-189.4764333 95.56333185-250.8349935 152.12122275-72.91017195 67.5094182-110.2653825 125.2674759-117.1663458 140.26956825V716.37136905l373.5521139 136.2190032 373.5521139-136.2190032V212.4510672z m0 0M458.75016043 518.7938045999999c0-70.3598154 48.3067389-129.31804095 113.41582245-146.12038455v-251.43507795c0-18.9026376 16.9523655-34.50481335 37.80527415-34.50481335 20.85290865 0 37.80527415 15.3021351 37.80527415 34.50481335V231.95378819999996h78.1609038c18.9026376 0 34.50481335 16.9523655 34.5048144 37.80527415 0 20.85290865-15.3021351 37.80527415-34.5048144 37.80527415h-78.1609038v65.2591044c65.10908355 16.8023436 113.41582245 75.91059 113.41582245 146.12038455 0 83.4116367-67.8094599 151.2210966-151.2210966 151.2210966-83.4116367 0-151.2210966-67.95948075-151.2210966-151.37111745z m237.6331524 0c0-47.7066555-38.70539925-86.41205475-86.4120558-86.41205475s-86.41205475 38.70539925-86.41205475 86.41205475 38.70539925 86.41205475 86.41205475 86.4120558c47.55663465 0 86.41205475-38.70539925 86.4120558-86.4120558z m0 0"  horiz-adv-x="1224" />

    
    <glyph glyph-name="sousuo" unicode="&#58883;" d="M939.905-9.321l-254.891 254.89c27.446 29.672 49.32 63.492 65.076 100.739 18.179 42.975 27.396 88.604 27.396 135.62 0 47.02-9.217 92.652-27.395 135.63-17.55 41.494-42.669 78.752-74.657 110.738-31.988 31.986-69.247 57.103-110.743 74.653-42.98 18.178-88.618 27.395-135.642 27.395-47.02 0-92.653-9.218-135.63-27.396-41.492-17.55-78.75-42.666-110.736-74.653S125.58 659.05 108.03 617.557c-18.177-42.978-27.395-88.609-27.395-135.63 0-47.015 9.218-92.643 27.395-135.618 17.551-41.491 42.667-78.746 74.654-110.731s69.244-57.102 110.736-74.65c42.978-18.178 88.61-27.395 135.63-27.395 47.025 0 92.66 9.216 135.642 27.394a347 347 0 0 1 66.493 37.164l258.068-258.068c6.994-6.993 16.16-10.49 25.327-10.49s18.332 3.497 25.327 10.49c13.986 13.99 13.986 36.667-0.001 50.656z m-510.857 214.49c-152.617 0-276.78 124.153-276.78 276.76 0 152.617 124.163 276.78 276.78 276.78 152.63 0 276.802-124.163 276.802-276.78 0-152.607-124.173-276.76-276.802-276.76z"  horiz-adv-x="1024" />

    
    <glyph glyph-name="mima" unicode="&#58905;" d="M780.53850246 473.05014287H381.50368503V621.27917816c0 49.03393943 59.74250092 103.14035535 133.0116058 103.14035535 73.8327134 0 133.57521431-54.10641592 133.57521431-103.14035535v-45.08867993h0.56360851c3.94525949-24.79877397 24.79877397-44.52507143 51.28837342-44.52507145 26.48959946 0 47.34311394 19.16268897 51.28837342 44.52507145h0.56360851V620.7155696699999c-0.56360849 114.97613384-107.08561484 207.9715362-237.84278667 207.9715362-130.19356332 0-236.71556967-92.43179387-236.71556966-207.40792771v-148.22903529h-29.30764196c-49.03393943 0-88.48653437-39.45259494-88.48653438-88.48653438v-355.07335449c0-49.03393943 39.45259494-88.48653437 88.48653438-88.48653437h532.61003175c49.03393943 0 88.48653437 39.45259494 88.48653437 88.48653437v355.07335449c0 49.03393943-39.45259494 88.48653437-88.48653437 88.48653438z m-222.0617487-327.45653803v-40.57981195c0-25.36238247-20.28990597-45.65228844-44.52507143-45.65228843-24.79877397 0-44.52507143 20.85351446-44.52507143 45.65228843v40.57981195c-34.94372695 16.34464648-59.17889241 51.28837342-59.17889241 92.43179387 0 56.92445842 46.77950543 102.57674686 103.14035535 102.57674684 57.48806692 0 103.14035535-45.65228844 103.14035535-102.57674684 1.12721701-40.57981194-23.10794847-76.65075589-58.05167543-92.43179387z m0 0"  horiz-adv-x="1024" />

    
    <glyph glyph-name="xuanzhong" unicode="&#58992;" d="M512-66C263.465-66 62 135.46500000000003 62 384S263.465 834 512 834s450-201.465 450-450-201.465-450-450-450z m223.65 608.85L467 274.20000000000005 310.85 430.35a33.75 33.75 0 0 1-47.7-47.7l180-180a33.75 33.75 0 0 1 47.7 0l292.5 292.5a33.75 33.75 0 0 1-47.7 47.7z"  horiz-adv-x="1024" />

    
    <glyph glyph-name="wuziguanli" unicode="&#59371;" d="M955.60936973-60.365287620000004H67.40701235l0.34675132 666.43523725 148.40956614 221.78330187h591.90335209l147.54268783-221.78330187v-666.43523725z m-90.89276838 666.43523725l-82.5013864 148.04778892h-525.10864479l-102.84413065-148.04778892h710.45416184z m16.90528281-73.73551295H141.74124924v-518.01526857l739.87947909-0.23001171V532.33443668z m0 0M438.12694236 310.12694236000004h295.95225397v-72.35775435h-295.95225397zM477.00932402 827.92491344h72.35775436v-295.95225397h-72.35775436zM290.8709023 162.8709023h443.20713819v-74.53650851H290.8709023z"  horiz-adv-x="1024" />

    
    <glyph glyph-name="shixinzhengfangxing" unicode="&#58894;" d="M64 832h896v-896H64z"  horiz-adv-x="1024" />

    
    <glyph glyph-name="wenjianfangwenquanxianpeizhi" unicode="&#58994;" d="M511.99399971 834L111.99399981 696.14999971V347.49999990000003a357.8000001 357.8000001 0 0 1 212.00000009-328.34999971l180-84.9999999 191.99999971 89.19999932A358.7000001 358.7000001 0 0 1 911.99399961 355.75000020000004V696.3z m320.0000001-478.2999999a278.6500002 278.6500002 0 0 0-167.99999942-259.45000049l-160.00000049-72.99999932-147.9999999 68.94999932A280.0000002 280.0000002 0 0 0 191.99399961 347.6000001V639.49999981L511.99399971 749.0000001l320.0000001-109.4500002v-283.79999971z m-159.99999961 150.00000029a159.99999961 159.99999961 0 1 1-320.0000001 0 164.99999971 164.99999971 0 0 1 119.99999971-158.10000029v-206.75000039h79.9999998v40.55000009h40.00000078V262.5h-40.00000078v84.9999999a161.39999971 161.39999971 0 0 1 120.00000058 158.10000029zM511.99399971 424.65000029a81.10000019 81.10000019 0 1 0 80.00000068 81.0500001A80.70000029 80.70000029 0 0 0 511.99399971 424.5500001z"  horiz-adv-x="1024" />

    
    <glyph glyph-name="wuyewuye" unicode="&#58889;" d="M766.51999969 195.58666634999997c-63.00000031-50.39999969-88.83-76.23000031-89.45999938-76.85999969-45.99000031-45.99000031-64.26-43.47-93.87000062-33.38999969-36.54000031 11.97000031-98.91000031 37.16999969-99.53999969 37.16999969l-1.25999969 0.63000031c-31.49999969 10.70999969-39.05999969 22.04999969-40.95000062 26.46-1.89 4.41000031 0 8.19000031 0 8.18999938 10.70999969 16.37999969 22.04999969 13.86000031 52.92-1.25999969 4.41000031-1.89 8.19000031-3.78 11.97000031-5.67 52.28999969-25.82999969 95.75999969-31.49999969 129.77999969-16.37999969 37.16999969 16.37999969 47.88000031 51.66000031 48.51000062 53.54999938l4.40999938 15.75000031-177.66 79.38-1.89 0.63000031c-131.66999969 41.58-234.99000031-28.98000031-246.32999938-37.17000062l-189-112.76999969c-8.81999969-5.67-11.97000031-17.01-6.30000031-25.82999969s17.01-11.97000031 25.82999969-6.30000031l189.63000031 113.4 1.89 1.25999969c0.63000031 0.63000031 93.86999969 68.67000031 211.68 32.13l142.38000031-63.62999969c-4.41000031-5.67-10.70999969-11.34-19.53000031-15.12-23.31000031-10.08000031-56.7-4.41000031-97.64999969 15.75000031l-0.63000031 0.62999938c-3.14999969 1.25999969-6.92999969 3.14999969-10.70999969 5.04000062-24.57 11.97000031-69.93 34.65000031-100.80000031-11.97000031-1.25999969-1.89-11.97000031-18.9-4.41000031-40.94999969 7.56-21.42000031 28.98000031-38.43000031 64.26-49.77000031 6.30000031-2.52000031 64.89000031-25.82999969 101.43000062-37.8 44.72999969-15.12 78.12000031-12.59999969 132.92999938 42.21000031 0 0 25.20000031 25.20000031 86.31000062 73.71 18.26999969 13.86000031 34.65000031 11.34 42.20999938 2.51999938 6.30000031-6.92999969 4.41000031-15.75000031-3.78-23.93999969-1.25999969-0.63000031-97.64999969-91.97999969-138.59999938-125.37000031-79.38-66.15-176.40000031-61.73999969-306.81000031 14.49000062-55.44000031 32.13-100.17 4.41000031-156.87-31.50000062-15.12-9.45-32.76000031-20.79-51.66000031-31.49999969-8.81999969-5.03999969-11.97000031-16.37999969-6.92999969-25.82999969 5.03999969-8.81999969 16.37999969-11.97000031 25.82999969-6.93000062 20.15999969 11.34 37.8 22.68 53.55000031 32.13 57.95999969 36.54000031 83.16 51.03 117.81000031 30.87000031 74.96999969-43.47 142.38000031-65.51999969 202.23-65.51999969 54.81 0 103.95 18.26999969 147.42 54.81 41.58 34.02 136.08 122.85 140.48999938 127.25999938 22.68 22.68 25.20000031 53.55000031 5.67 75.6-19.53000031 21.42000031-57.95999969 29.60999969-94.5 1.89zM952.37 462.70666666L540.98000031 824.95666635c-4.41000031 3.78-10.08000031 5.03999969-15.75000031 4.41000031-5.67 0.63000031-11.34-0.63000031-15.75000031-4.41000031L98.72000031 462.07666635c-7.56-6.92999969-8.81999969-18.9-1.89-26.46 3.78-4.41000031 8.81999969-6.30000031 14.48999969-6.29999938 4.41000031 0 8.81999969 1.25999969 12.59999969 5.03999969l75.6 66.78000031v-198.45c0-10.70999969 8.19000031-18.9 18.9-18.9s18.9 8.19000031 18.9 18.9V528.22666635c0 1.89-0.63000031 3.78-0.62999938 5.04000062l288.53999969 254.51999969L813.76999969 533.26666697c-0.63000031-1.89-0.63000031-3.78-0.62999938-5.67v-275.94c0-10.70999969 8.19000031-18.9 18.9-18.9s18.9 8.19000031 18.9 18.9V501.13666697l76.22999938-67.41000062c3.78-3.14999969 8.19000031-4.41000031 12.60000062-4.40999938 5.03999969 0 10.70999969 1.89 14.48999969 6.29999938 6.30000031 8.19000031 5.67 20.15999969-1.89 27.09000031zM421.28 339.85666666c0-10.70999969 8.19000031-18.9 18.9-18.9s18.9 8.19000031 18.9 18.9V431.20666697h132.3v-143.01000062c0-10.70999969 8.19000031-18.9 18.9-18.9s18.9 8.19000031 18.9 18.9V441.91666666c0 1.25999969 0 2.52000031-0.63000031 3.78 0 1.25999969 0.63000031 2.52000031 0.63000031 3.78 0 10.70999969-8.19000031 18.9-18.9 18.9h-170.1c-10.70999969 0-18.9-8.19000031-18.9-18.9 0-1.25999969 0-2.52000031 0.63000031-3.78 0-1.25999969-0.63000031-2.52000031-0.63000031-3.78v-102.06z"  horiz-adv-x="1024" />

    
    </font>
</defs>
</svg>
